<svg version="1.1" viewBox="0.0 0.0 600.0 371.0" fill="none" stroke="none" stroke-linecap="square" stroke-miterlimit="10" width="600" height="371" xmlns:xlink="http://www.w3.org/1999/xlink" xmlns="http://www.w3.org/2000/svg"><path fill="#ffffff" d="M0 0L600.0 0L600.0 371.0L0 371.0L0 0Z" fill-rule="nonzero"/><path stroke="#333333" stroke-width="1.0" stroke-linecap="butt" d="M49.5 52.5L49.5 292.5" fill-rule="nonzero"/><path stroke="#cccccc" stroke-width="1.0" stroke-linecap="butt" d="M182.5 52.5L182.5 292.5" fill-rule="nonzero"/><path stroke="#cccccc" stroke-width="1.0" stroke-linecap="butt" d="M315.5 52.5L315.5 292.5" fill-rule="nonzero"/><path stroke="#cccccc" stroke-width="1.0" stroke-linecap="butt" d="M448.5 52.5L448.5 292.5" fill-rule="nonzero"/><path stroke="#cccccc" stroke-width="1.0" stroke-linecap="butt" d="M581.5 52.5L581.5 292.5" fill-rule="nonzero"/><path stroke="#cccccc" stroke-width="1.0" stroke-linecap="butt" d="M49.5 292.5L581.5 292.5" fill-rule="nonzero"/><path stroke="#cccccc" stroke-width="1.0" stroke-linecap="butt" d="M49.5 212.5L581.5 212.5" fill-rule="nonzero"/><path stroke="#cccccc" stroke-width="1.0" stroke-linecap="butt" d="M49.5 132.5L581.5 132.5" fill-rule="nonzero"/><path stroke="#cccccc" stroke-width="1.0" stroke-linecap="butt" d="M49.5 52.5L581.5 52.5" fill-rule="nonzero"/><clipPath id="id_0"><path d="M49.55 52.916668L581.45 52.916668L581.45 292.45L49.55 292.45L49.55 52.916668Z" clip-rule="nonzero"/></clipPath><path stroke="#48bec6" stroke-width="2.0" stroke-linecap="butt" clip-path="url(#id_0)" d="M76.145 124.776665L102.74 100.82333L129.335 80.86222L155.93 76.87L182.525 68.88556L209.12 68.88556L235.715 68.88556L262.31 68.88556L288.905 64.89333L315.5 60.90111L368.69 60.90111L421.88 64.89333L475.07 60.90111L528.26 56.90889L581.45 56.90889" fill-rule="nonzero"/><path stroke="#4588f4" stroke-width="2.0" stroke-linecap="butt" clip-path="url(#id_0)" d="M76.145 164.69888L102.74 120.78445L129.335 96.83111L155.93 84.85445L182.525 80.86222L209.12 72.87778L235.715 76.87L262.31 72.87778L288.905 72.87778L315.5 68.88556L368.69 60.90111L421.88 64.89333L475.07 64.89333L528.26 60.90111L581.45 60.90111" fill-rule="nonzero"/><path stroke="#fbbc04" stroke-width="2.0" stroke-linecap="butt" clip-path="url(#id_0)" d="M76.145 148.73L102.74 92.83889L129.335 84.85445L155.93 76.87L182.525 76.87L209.12 68.88556L235.715 64.89333L262.31 64.89333L288.905 68.88556L315.5 64.89333L368.69 64.89333L421.88 60.90111L475.07 60.90111L528.26 56.90889L581.45 56.90889" fill-rule="nonzero"/><path stroke="#34a853" stroke-width="2.0" stroke-linecap="butt" clip-path="url(#id_0)" d="M76.145 120.78445L102.74 104.81555L129.335 88.846664L155.93 76.87L182.525 76.87L209.12 68.88556L235.715 68.88556L262.31 64.89333L288.905 68.88556L315.5 60.90111L368.69 60.90111L421.88 60.90111L475.07 60.90111L528.26 56.90889L581.45 56.90889" fill-rule="nonzero"/><path stroke="#ff6d01" stroke-width="2.0" stroke-linecap="butt" clip-path="url(#id_0)" d="M76.145 136.75333L102.74 116.79222L129.335 96.83111L155.93 88.846664L182.525 80.86222L209.12 76.87L235.715 76.87L262.31 72.87778L288.905 68.88556L315.5 68.88556L368.69 64.89333L421.88 64.89333L475.07 64.89333L528.26 64.89333L581.45 60.90111" fill-rule="nonzero"/><path stroke="#f11502" stroke-width="2.0" stroke-linecap="butt" clip-path="url(#id_0)" d="M76.145 284.46555L102.74 232.56667L129.335 176.67555L155.93 152.72223L182.525 124.776665L209.12 116.79222L235.715 92.83889L262.31 96.83111L288.905 92.83889L315.5 88.846664L368.69 84.85445L421.88 72.87778L475.07 72.87778L528.26 72.87778L581.45 72.87778" fill-rule="nonzero"/><path fill="#000000" fill-opacity="0.0" clip-path="url(#id_0)" d="M79.145 124.776665C79.145 126.43352 77.80186 127.776665 76.145 127.776665C74.488144 127.776665 73.145 126.43352 73.145 124.776665C73.145 123.11981 74.488144 121.776665 76.145 121.776665C77.80186 121.776665 79.145 123.11981 79.145 124.776665Z" fill-rule="nonzero"/><path fill="#000000" fill-opacity="0.0" clip-path="url(#id_0)" d="M105.74 100.82333C105.74 102.48019 104.39685 103.82333 102.74 103.82333C101.083145 103.82333 99.74 102.48019 99.74 100.82333C99.74 99.16648 101.083145 97.82333 102.74 97.82333C104.39685 97.82333 105.74 99.16648 105.74 100.82333Z" fill-rule="nonzero"/><path fill="#000000" fill-opacity="0.0" clip-path="url(#id_0)" d="M132.335 80.86222C132.335 82.51907 130.99185 83.86222 129.335 83.86222C127.67815 83.86222 126.335 82.51907 126.335 80.86222C126.335 79.20537 127.67815 77.86222 129.335 77.86222C130.99185 77.86222 132.335 79.20537 132.335 80.86222Z" fill-rule="nonzero"/><path fill="#000000" fill-opacity="0.0" clip-path="url(#id_0)" d="M158.93 76.87C158.93 78.526855 157.58685 79.87 155.93 79.87C154.27315 79.87 152.93 78.526855 152.93 76.87C152.93 75.21314 154.27315 73.87 155.93 73.87C157.58685 73.87 158.93 75.21314 158.93 76.87Z" fill-rule="nonzero"/><path fill="#000000" fill-opacity="0.0" clip-path="url(#id_0)" d="M185.525 68.88556C185.525 70.54241 184.18185 71.88556 182.525 71.88556C180.86815 71.88556 179.525 70.54241 179.525 68.88556C179.525 67.2287 180.86815 65.88556 182.525 65.88556C184.18185 65.88556 185.525 67.2287 185.525 68.88556Z" fill-rule="nonzero"/><path fill="#000000" fill-opacity="0.0" clip-path="url(#id_0)" d="M212.12 68.88556C212.12 70.54241 210.77686 71.88556 209.12 71.88556C207.46315 71.88556 206.12 70.54241 206.12 68.88556C206.12 67.2287 207.46315 65.88556 209.12 65.88556C210.77686 65.88556 212.12 67.2287 212.12 68.88556Z" fill-rule="nonzero"/><path fill="#000000" fill-opacity="0.0" clip-path="url(#id_0)" d="M238.715 68.88556C238.715 70.54241 237.37186 71.88556 235.715 71.88556C234.05815 71.88556 232.715 70.54241 232.715 68.88556C232.715 67.2287 234.05815 65.88556 235.715 65.88556C237.37186 65.88556 238.715 67.2287 238.715 68.88556Z" fill-rule="nonzero"/><path fill="#000000" fill-opacity="0.0" clip-path="url(#id_0)" d="M265.31 68.88556C265.31 70.54241 263.96686 71.88556 262.31 71.88556C260.65314 71.88556 259.31 70.54241 259.31 68.88556C259.31 67.2287 260.65314 65.88556 262.31 65.88556C263.96686 65.88556 265.31 67.2287 265.31 68.88556Z" fill-rule="nonzero"/><path fill="#000000" fill-opacity="0.0" clip-path="url(#id_0)" d="M291.905 64.89333C291.905 66.550186 290.56186 67.89333 288.905 67.89333C287.24814 67.89333 285.905 66.550186 285.905 64.89333C285.905 63.23648 287.24814 61.893333 288.905 61.893333C290.56186 61.893333 291.905 63.23648 291.905 64.89333Z" fill-rule="nonzero"/><path fill="#000000" fill-opacity="0.0" clip-path="url(#id_0)" d="M318.5 60.90111C318.5 62.557964 317.15686 63.90111 315.5 63.90111C313.84314 63.90111 312.5 62.557964 312.5 60.90111C312.5 59.244255 313.84314 57.90111 315.5 57.90111C317.15686 57.90111 318.5 59.244255 318.5 60.90111Z" fill-rule="nonzero"/><path fill="#000000" fill-opacity="0.0" clip-path="url(#id_0)" d="M371.69 60.90111C371.69 62.557964 370.34686 63.90111 368.69 63.90111C367.03314 63.90111 365.69 62.557964 365.69 60.90111C365.69 59.244255 367.03314 57.90111 368.69 57.90111C370.34686 57.90111 371.69 59.244255 371.69 60.90111Z" fill-rule="nonzero"/><path fill="#000000" fill-opacity="0.0" clip-path="url(#id_0)" d="M424.88 64.89333C424.88 66.550186 423.53687 67.89333 421.88 67.89333C420.22314 67.89333 418.88 66.550186 418.88 64.89333C418.88 63.23648 420.22314 61.893333 421.88 61.893333C423.53687 61.893333 424.88 63.23648 424.88 64.89333Z" fill-rule="nonzero"/><path fill="#000000" fill-opacity="0.0" clip-path="url(#id_0)" d="M478.07 60.90111C478.07 62.557964 476.72687 63.90111 475.07 63.90111C473.41315 63.90111 472.07 62.557964 472.07 60.90111C472.07 59.244255 473.41315 57.90111 475.07 57.90111C476.72687 57.90111 478.07 59.244255 478.07 60.90111Z" fill-rule="nonzero"/><path fill="#000000" fill-opacity="0.0" clip-path="url(#id_0)" d="M531.26 56.90889C531.26 58.565742 529.9169 59.90889 528.26 59.90889C526.60315 59.90889 525.26 58.565742 525.26 56.90889C525.26 55.252033 526.60315 53.90889 528.26 53.90889C529.9169 53.90889 531.26 55.252033 531.26 56.90889Z" fill-rule="nonzero"/><path fill="#000000" fill-opacity="0.0" clip-path="url(#id_0)" d="M584.45 56.90889C584.45 58.565742 583.1069 59.90889 581.45 59.90889C579.79315 59.90889 578.45 58.565742 578.45 56.90889C578.45 55.252033 579.79315 53.90889 581.45 53.90889C583.1069 53.90889 584.45 55.252033 584.45 56.90889Z" fill-rule="nonzero"/><path fill="#000000" fill-opacity="0.0" clip-path="url(#id_0)" d="M79.145 164.69888C79.145 166.35574 77.80186 167.69888 76.145 167.69888C74.488144 167.69888 73.145 166.35574 73.145 164.69888C73.145 163.04204 74.488144 161.69888 76.145 161.69888C77.80186 161.69888 79.145 163.04204 79.145 164.69888Z" fill-rule="nonzero"/><path fill="#000000" fill-opacity="0.0" clip-path="url(#id_0)" d="M105.74 120.78445C105.74 122.4413 104.39685 123.78445 102.74 123.78445C101.083145 123.78445 99.74 122.4413 99.74 120.78445C99.74 119.127594 101.083145 117.78445 102.74 117.78445C104.39685 117.78445 105.74 119.127594 105.74 120.78445Z" fill-rule="nonzero"/><path fill="#000000" fill-opacity="0.0" clip-path="url(#id_0)" d="M132.335 96.83111C132.335 98.48797 130.99185 99.83111 129.335 99.83111C127.67815 99.83111 126.335 98.48797 126.335 96.83111C126.335 95.174255 127.67815 93.83111 129.335 93.83111C130.99185 93.83111 132.335 95.174255 132.335 96.83111Z" fill-rule="nonzero"/><path fill="#000000" fill-opacity="0.0" clip-path="url(#id_0)" d="M158.93 84.85445C158.93 86.5113 157.58685 87.85445 155.93 87.85445C154.27315 87.85445 152.93 86.5113 152.93 84.85445C152.93 83.19759 154.27315 81.85445 155.93 81.85445C157.58685 81.85445 158.93 83.19759 158.93 84.85445Z" fill-rule="nonzero"/><path fill="#000000" fill-opacity="0.0" clip-path="url(#id_0)" d="M185.525 80.86222C185.525 82.51907 184.18185 83.86222 182.525 83.86222C180.86815 83.86222 179.525 82.51907 179.525 80.86222C179.525 79.20537 180.86815 77.86222 182.525 77.86222C184.18185 77.86222 185.525 79.20537 185.525 80.86222Z" fill-rule="nonzero"/><path fill="#000000" fill-opacity="0.0" clip-path="url(#id_0)" d="M212.12 72.87778C212.12 74.53463 210.77686 75.87778 209.12 75.87778C207.46315 75.87778 206.12 74.53463 206.12 72.87778C206.12 71.220924 207.46315 69.87778 209.12 69.87778C210.77686 69.87778 212.12 71.220924 212.12 72.87778Z" fill-rule="nonzero"/><path fill="#000000" fill-opacity="0.0" clip-path="url(#id_0)" d="M238.715 76.87C238.715 78.526855 237.37186 79.87 235.715 79.87C234.05815 79.87 232.715 78.526855 232.715 76.87C232.715 75.21314 234.05815 73.87 235.715 73.87C237.37186 73.87 238.715 75.21314 238.715 76.87Z" fill-rule="nonzero"/><path fill="#000000" fill-opacity="0.0" clip-path="url(#id_0)" d="M265.31 72.87778C265.31 74.53463 263.96686 75.87778 262.31 75.87778C260.65314 75.87778 259.31 74.53463 259.31 72.87778C259.31 71.220924 260.65314 69.87778 262.31 69.87778C263.96686 69.87778 265.31 71.220924 265.31 72.87778Z" fill-rule="nonzero"/><path fill="#000000" fill-opacity="0.0" clip-path="url(#id_0)" d="M291.905 72.87778C291.905 74.53463 290.56186 75.87778 288.905 75.87778C287.24814 75.87778 285.905 74.53463 285.905 72.87778C285.905 71.220924 287.24814 69.87778 288.905 69.87778C290.56186 69.87778 291.905 71.220924 291.905 72.87778Z" fill-rule="nonzero"/><path fill="#000000" fill-opacity="0.0" clip-path="url(#id_0)" d="M318.5 68.88556C318.5 70.54241 317.15686 71.88556 315.5 71.88556C313.84314 71.88556 312.5 70.54241 312.5 68.88556C312.5 67.2287 313.84314 65.88556 315.5 65.88556C317.15686 65.88556 318.5 67.2287 318.5 68.88556Z" fill-rule="nonzero"/><path fill="#000000" fill-opacity="0.0" clip-path="url(#id_0)" d="M371.69 60.90111C371.69 62.557964 370.34686 63.90111 368.69 63.90111C367.03314 63.90111 365.69 62.557964 365.69 60.90111C365.69 59.244255 367.03314 57.90111 368.69 57.90111C370.34686 57.90111 371.69 59.244255 371.69 60.90111Z" fill-rule="nonzero"/><path fill="#000000" fill-opacity="0.0" clip-path="url(#id_0)" d="M424.88 64.89333C424.88 66.550186 423.53687 67.89333 421.88 67.89333C420.22314 67.89333 418.88 66.550186 418.88 64.89333C418.88 63.23648 420.22314 61.893333 421.88 61.893333C423.53687 61.893333 424.88 63.23648 424.88 64.89333Z" fill-rule="nonzero"/><path fill="#000000" fill-opacity="0.0" clip-path="url(#id_0)" d="M478.07 64.89333C478.07 66.550186 476.72687 67.89333 475.07 67.89333C473.41315 67.89333 472.07 66.550186 472.07 64.89333C472.07 63.23648 473.41315 61.893333 475.07 61.893333C476.72687 61.893333 478.07 63.23648 478.07 64.89333Z" fill-rule="nonzero"/><path fill="#000000" fill-opacity="0.0" clip-path="url(#id_0)" d="M531.26 60.90111C531.26 62.557964 529.9169 63.90111 528.26 63.90111C526.60315 63.90111 525.26 62.557964 525.26 60.90111C525.26 59.244255 526.60315 57.90111 528.26 57.90111C529.9169 57.90111 531.26 59.244255 531.26 60.90111Z" fill-rule="nonzero"/><path fill="#000000" fill-opacity="0.0" clip-path="url(#id_0)" d="M584.45 60.90111C584.45 62.557964 583.1069 63.90111 581.45 63.90111C579.79315 63.90111 578.45 62.557964 578.45 60.90111C578.45 59.244255 579.79315 57.90111 581.45 57.90111C583.1069 57.90111 584.45 59.244255 584.45 60.90111Z" fill-rule="nonzero"/><path fill="#000000" fill-opacity="0.0" clip-path="url(#id_0)" d="M79.145 148.73C79.145 150.38686 77.80186 151.73 76.145 151.73C74.488144 151.73 73.145 150.38686 73.145 148.73C73.145 147.07315 74.488144 145.73 76.145 145.73C77.80186 145.73 79.145 147.07315 79.145 148.73Z" fill-rule="nonzero"/><path fill="#000000" fill-opacity="0.0" clip-path="url(#id_0)" d="M105.74 92.83889C105.74 94.49574 104.39685 95.83889 102.74 95.83889C101.083145 95.83889 99.74 94.49574 99.74 92.83889C99.74 91.18204 101.083145 89.83889 102.74 89.83889C104.39685 89.83889 105.74 91.18204 105.74 92.83889Z" fill-rule="nonzero"/><path fill="#000000" fill-opacity="0.0" clip-path="url(#id_0)" d="M132.335 84.85445C132.335 86.5113 130.99185 87.85445 129.335 87.85445C127.67815 87.85445 126.335 86.5113 126.335 84.85445C126.335 83.19759 127.67815 81.85445 129.335 81.85445C130.99185 81.85445 132.335 83.19759 132.335 84.85445Z" fill-rule="nonzero"/><path fill="#000000" fill-opacity="0.0" clip-path="url(#id_0)" d="M158.93 76.87C158.93 78.526855 157.58685 79.87 155.93 79.87C154.27315 79.87 152.93 78.526855 152.93 76.87C152.93 75.21314 154.27315 73.87 155.93 73.87C157.58685 73.87 158.93 75.21314 158.93 76.87Z" fill-rule="nonzero"/><path fill="#000000" fill-opacity="0.0" clip-path="url(#id_0)" d="M185.525 76.87C185.525 78.526855 184.18185 79.87 182.525 79.87C180.86815 79.87 179.525 78.526855 179.525 76.87C179.525 75.21314 180.86815 73.87 182.525 73.87C184.18185 73.87 185.525 75.21314 185.525 76.87Z" fill-rule="nonzero"/><path fill="#000000" fill-opacity="0.0" clip-path="url(#id_0)" d="M212.12 68.88556C212.12 70.54241 210.77686 71.88556 209.12 71.88556C207.46315 71.88556 206.12 70.54241 206.12 68.88556C206.12 67.2287 207.46315 65.88556 209.12 65.88556C210.77686 65.88556 212.12 67.2287 212.12 68.88556Z" fill-rule="nonzero"/><path fill="#000000" fill-opacity="0.0" clip-path="url(#id_0)" d="M238.715 64.89333C238.715 66.550186 237.37186 67.89333 235.715 67.89333C234.05815 67.89333 232.715 66.550186 232.715 64.89333C232.715 63.23648 234.05815 61.893333 235.715 61.893333C237.37186 61.893333 238.715 63.23648 238.715 64.89333Z" fill-rule="nonzero"/><path fill="#000000" fill-opacity="0.0" clip-path="url(#id_0)" d="M265.31 64.89333C265.31 66.550186 263.96686 67.89333 262.31 67.89333C260.65314 67.89333 259.31 66.550186 259.31 64.89333C259.31 63.23648 260.65314 61.893333 262.31 61.893333C263.96686 61.893333 265.31 63.23648 265.31 64.89333Z" fill-rule="nonzero"/><path fill="#000000" fill-opacity="0.0" clip-path="url(#id_0)" d="M291.905 68.88556C291.905 70.54241 290.56186 71.88556 288.905 71.88556C287.24814 71.88556 285.905 70.54241 285.905 68.88556C285.905 67.2287 287.24814 65.88556 288.905 65.88556C290.56186 65.88556 291.905 67.2287 291.905 68.88556Z" fill-rule="nonzero"/><path fill="#000000" fill-opacity="0.0" clip-path="url(#id_0)" d="M318.5 64.89333C318.5 66.550186 317.15686 67.89333 315.5 67.89333C313.84314 67.89333 312.5 66.550186 312.5 64.89333C312.5 63.23648 313.84314 61.893333 315.5 61.893333C317.15686 61.893333 318.5 63.23648 318.5 64.89333Z" fill-rule="nonzero"/><path fill="#000000" fill-opacity="0.0" clip-path="url(#id_0)" d="M371.69 64.89333C371.69 66.550186 370.34686 67.89333 368.69 67.89333C367.03314 67.89333 365.69 66.550186 365.69 64.89333C365.69 63.23648 367.03314 61.893333 368.69 61.893333C370.34686 61.893333 371.69 63.23648 371.69 64.89333Z" fill-rule="nonzero"/><path fill="#000000" fill-opacity="0.0" clip-path="url(#id_0)" d="M424.88 60.90111C424.88 62.557964 423.53687 63.90111 421.88 63.90111C420.22314 63.90111 418.88 62.557964 418.88 60.90111C418.88 59.244255 420.22314 57.90111 421.88 57.90111C423.53687 57.90111 424.88 59.244255 424.88 60.90111Z" fill-rule="nonzero"/><path fill="#000000" fill-opacity="0.0" clip-path="url(#id_0)" d="M478.07 60.90111C478.07 62.557964 476.72687 63.90111 475.07 63.90111C473.41315 63.90111 472.07 62.557964 472.07 60.90111C472.07 59.244255 473.41315 57.90111 475.07 57.90111C476.72687 57.90111 478.07 59.244255 478.07 60.90111Z" fill-rule="nonzero"/><path fill="#000000" fill-opacity="0.0" clip-path="url(#id_0)" d="M531.26 56.90889C531.26 58.565742 529.9169 59.90889 528.26 59.90889C526.60315 59.90889 525.26 58.565742 525.26 56.90889C525.26 55.252033 526.60315 53.90889 528.26 53.90889C529.9169 53.90889 531.26 55.252033 531.26 56.90889Z" fill-rule="nonzero"/><path fill="#000000" fill-opacity="0.0" clip-path="url(#id_0)" d="M584.45 56.90889C584.45 58.565742 583.1069 59.90889 581.45 59.90889C579.79315 59.90889 578.45 58.565742 578.45 56.90889C578.45 55.252033 579.79315 53.90889 581.45 53.90889C583.1069 53.90889 584.45 55.252033 584.45 56.90889Z" fill-rule="nonzero"/><path fill="#000000" fill-opacity="0.0" clip-path="url(#id_0)" d="M79.145 120.78445C79.145 122.4413 77.80186 123.78445 76.145 123.78445C74.488144 123.78445 73.145 122.4413 73.145 120.78445C73.145 119.127594 74.488144 117.78445 76.145 117.78445C77.80186 117.78445 79.145 119.127594 79.145 120.78445Z" fill-rule="nonzero"/><path fill="#000000" fill-opacity="0.0" clip-path="url(#id_0)" d="M105.74 104.81555C105.74 106.47241 104.39685 107.81555 102.74 107.81555C101.083145 107.81555 99.74 106.47241 99.74 104.81555C99.74 103.1587 101.083145 101.81555 102.74 101.81555C104.39685 101.81555 105.74 103.1587 105.74 104.81555Z" fill-rule="nonzero"/><path fill="#000000" fill-opacity="0.0" clip-path="url(#id_0)" d="M132.335 88.846664C132.335 90.50352 130.99185 91.846664 129.335 91.846664C127.67815 91.846664 126.335 90.50352 126.335 88.846664C126.335 87.18981 127.67815 85.846664 129.335 85.846664C130.99185 85.846664 132.335 87.18981 132.335 88.846664Z" fill-rule="nonzero"/><path fill="#000000" fill-opacity="0.0" clip-path="url(#id_0)" d="M158.93 76.87C158.93 78.526855 157.58685 79.87 155.93 79.87C154.27315 79.87 152.93 78.526855 152.93 76.87C152.93 75.21314 154.27315 73.87 155.93 73.87C157.58685 73.87 158.93 75.21314 158.93 76.87Z" fill-rule="nonzero"/><path fill="#000000" fill-opacity="0.0" clip-path="url(#id_0)" d="M185.525 76.87C185.525 78.526855 184.18185 79.87 182.525 79.87C180.86815 79.87 179.525 78.526855 179.525 76.87C179.525 75.21314 180.86815 73.87 182.525 73.87C184.18185 73.87 185.525 75.21314 185.525 76.87Z" fill-rule="nonzero"/><path fill="#000000" fill-opacity="0.0" clip-path="url(#id_0)" d="M212.12 68.88556C212.12 70.54241 210.77686 71.88556 209.12 71.88556C207.46315 71.88556 206.12 70.54241 206.12 68.88556C206.12 67.2287 207.46315 65.88556 209.12 65.88556C210.77686 65.88556 212.12 67.2287 212.12 68.88556Z" fill-rule="nonzero"/><path fill="#000000" fill-opacity="0.0" clip-path="url(#id_0)" d="M238.715 68.88556C238.715 70.54241 237.37186 71.88556 235.715 71.88556C234.05815 71.88556 232.715 70.54241 232.715 68.88556C232.715 67.2287 234.05815 65.88556 235.715 65.88556C237.37186 65.88556 238.715 67.2287 238.715 68.88556Z" fill-rule="nonzero"/><path fill="#000000" fill-opacity="0.0" clip-path="url(#id_0)" d="M265.31 64.89333C265.31 66.550186 263.96686 67.89333 262.31 67.89333C260.65314 67.89333 259.31 66.550186 259.31 64.89333C259.31 63.23648 260.65314 61.893333 262.31 61.893333C263.96686 61.893333 265.31 63.23648 265.31 64.89333Z" fill-rule="nonzero"/><path fill="#000000" fill-opacity="0.0" clip-path="url(#id_0)" d="M291.905 68.88556C291.905 70.54241 290.56186 71.88556 288.905 71.88556C287.24814 71.88556 285.905 70.54241 285.905 68.88556C285.905 67.2287 287.24814 65.88556 288.905 65.88556C290.56186 65.88556 291.905 67.2287 291.905 68.88556Z" fill-rule="nonzero"/><path fill="#000000" fill-opacity="0.0" clip-path="url(#id_0)" d="M318.5 60.90111C318.5 62.557964 317.15686 63.90111 315.5 63.90111C313.84314 63.90111 312.5 62.557964 312.5 60.90111C312.5 59.244255 313.84314 57.90111 315.5 57.90111C317.15686 57.90111 318.5 59.244255 318.5 60.90111Z" fill-rule="nonzero"/><path fill="#000000" fill-opacity="0.0" clip-path="url(#id_0)" d="M371.69 60.90111C371.69 62.557964 370.34686 63.90111 368.69 63.90111C367.03314 63.90111 365.69 62.557964 365.69 60.90111C365.69 59.244255 367.03314 57.90111 368.69 57.90111C370.34686 57.90111 371.69 59.244255 371.69 60.90111Z" fill-rule="nonzero"/><path fill="#000000" fill-opacity="0.0" clip-path="url(#id_0)" d="M424.88 60.90111C424.88 62.557964 423.53687 63.90111 421.88 63.90111C420.22314 63.90111 418.88 62.557964 418.88 60.90111C418.88 59.244255 420.22314 57.90111 421.88 57.90111C423.53687 57.90111 424.88 59.244255 424.88 60.90111Z" fill-rule="nonzero"/><path fill="#000000" fill-opacity="0.0" clip-path="url(#id_0)" d="M478.07 60.90111C478.07 62.557964 476.72687 63.90111 475.07 63.90111C473.41315 63.90111 472.07 62.557964 472.07 60.90111C472.07 59.244255 473.41315 57.90111 475.07 57.90111C476.72687 57.90111 478.07 59.244255 478.07 60.90111Z" fill-rule="nonzero"/><path fill="#000000" fill-opacity="0.0" clip-path="url(#id_0)" d="M531.26 56.90889C531.26 58.565742 529.9169 59.90889 528.26 59.90889C526.60315 59.90889 525.26 58.565742 525.26 56.90889C525.26 55.252033 526.60315 53.90889 528.26 53.90889C529.9169 53.90889 531.26 55.252033 531.26 56.90889Z" fill-rule="nonzero"/><path fill="#000000" fill-opacity="0.0" clip-path="url(#id_0)" d="M584.45 56.90889C584.45 58.565742 583.1069 59.90889 581.45 59.90889C579.79315 59.90889 578.45 58.565742 578.45 56.90889C578.45 55.252033 579.79315 53.90889 581.45 53.90889C583.1069 53.90889 584.45 55.252033 584.45 56.90889Z" fill-rule="nonzero"/><path fill="#000000" fill-opacity="0.0" clip-path="url(#id_0)" d="M79.145 136.75333C79.145 138.41019 77.80186 139.75333 76.145 139.75333C74.488144 139.75333 73.145 138.41019 73.145 136.75333C73.145 135.09648 74.488144 133.75333 76.145 133.75333C77.80186 133.75333 79.145 135.09648 79.145 136.75333Z" fill-rule="nonzero"/><path fill="#000000" fill-opacity="0.0" clip-path="url(#id_0)" d="M105.74 116.79222C105.74 118.44907 104.39685 119.79222 102.74 119.79222C101.083145 119.79222 99.74 118.44907 99.74 116.79222C99.74 115.13537 101.083145 113.79222 102.74 113.79222C104.39685 113.79222 105.74 115.13537 105.74 116.79222Z" fill-rule="nonzero"/><path fill="#000000" fill-opacity="0.0" clip-path="url(#id_0)" d="M132.335 96.83111C132.335 98.48797 130.99185 99.83111 129.335 99.83111C127.67815 99.83111 126.335 98.48797 126.335 96.83111C126.335 95.174255 127.67815 93.83111 129.335 93.83111C130.99185 93.83111 132.335 95.174255 132.335 96.83111Z" fill-rule="nonzero"/><path fill="#000000" fill-opacity="0.0" clip-path="url(#id_0)" d="M158.93 88.846664C158.93 90.50352 157.58685 91.846664 155.93 91.846664C154.27315 91.846664 152.93 90.50352 152.93 88.846664C152.93 87.18981 154.27315 85.846664 155.93 85.846664C157.58685 85.846664 158.93 87.18981 158.93 88.846664Z" fill-rule="nonzero"/><path fill="#000000" fill-opacity="0.0" clip-path="url(#id_0)" d="M185.525 80.86222C185.525 82.51907 184.18185 83.86222 182.525 83.86222C180.86815 83.86222 179.525 82.51907 179.525 80.86222C179.525 79.20537 180.86815 77.86222 182.525 77.86222C184.18185 77.86222 185.525 79.20537 185.525 80.86222Z" fill-rule="nonzero"/><path fill="#000000" fill-opacity="0.0" clip-path="url(#id_0)" d="M212.12 76.87C212.12 78.526855 210.77686 79.87 209.12 79.87C207.46315 79.87 206.12 78.526855 206.12 76.87C206.12 75.21314 207.46315 73.87 209.12 73.87C210.77686 73.87 212.12 75.21314 212.12 76.87Z" fill-rule="nonzero"/><path fill="#000000" fill-opacity="0.0" clip-path="url(#id_0)" d="M238.715 76.87C238.715 78.526855 237.37186 79.87 235.715 79.87C234.05815 79.87 232.715 78.526855 232.715 76.87C232.715 75.21314 234.05815 73.87 235.715 73.87C237.37186 73.87 238.715 75.21314 238.715 76.87Z" fill-rule="nonzero"/><path fill="#000000" fill-opacity="0.0" clip-path="url(#id_0)" d="M265.31 72.87778C265.31 74.53463 263.96686 75.87778 262.31 75.87778C260.65314 75.87778 259.31 74.53463 259.31 72.87778C259.31 71.220924 260.65314 69.87778 262.31 69.87778C263.96686 69.87778 265.31 71.220924 265.31 72.87778Z" fill-rule="nonzero"/><path fill="#000000" fill-opacity="0.0" clip-path="url(#id_0)" d="M291.905 68.88556C291.905 70.54241 290.56186 71.88556 288.905 71.88556C287.24814 71.88556 285.905 70.54241 285.905 68.88556C285.905 67.2287 287.24814 65.88556 288.905 65.88556C290.56186 65.88556 291.905 67.2287 291.905 68.88556Z" fill-rule="nonzero"/><path fill="#000000" fill-opacity="0.0" clip-path="url(#id_0)" d="M318.5 68.88556C318.5 70.54241 317.15686 71.88556 315.5 71.88556C313.84314 71.88556 312.5 70.54241 312.5 68.88556C312.5 67.2287 313.84314 65.88556 315.5 65.88556C317.15686 65.88556 318.5 67.2287 318.5 68.88556Z" fill-rule="nonzero"/><path fill="#000000" fill-opacity="0.0" clip-path="url(#id_0)" d="M371.69 64.89333C371.69 66.550186 370.34686 67.89333 368.69 67.89333C367.03314 67.89333 365.69 66.550186 365.69 64.89333C365.69 63.23648 367.03314 61.893333 368.69 61.893333C370.34686 61.893333 371.69 63.23648 371.69 64.89333Z" fill-rule="nonzero"/><path fill="#000000" fill-opacity="0.0" clip-path="url(#id_0)" d="M424.88 64.89333C424.88 66.550186 423.53687 67.89333 421.88 67.89333C420.22314 67.89333 418.88 66.550186 418.88 64.89333C418.88 63.23648 420.22314 61.893333 421.88 61.893333C423.53687 61.893333 424.88 63.23648 424.88 64.89333Z" fill-rule="nonzero"/><path fill="#000000" fill-opacity="0.0" clip-path="url(#id_0)" d="M478.07 64.89333C478.07 66.550186 476.72687 67.89333 475.07 67.89333C473.41315 67.89333 472.07 66.550186 472.07 64.89333C472.07 63.23648 473.41315 61.893333 475.07 61.893333C476.72687 61.893333 478.07 63.23648 478.07 64.89333Z" fill-rule="nonzero"/><path fill="#000000" fill-opacity="0.0" clip-path="url(#id_0)" d="M531.26 64.89333C531.26 66.550186 529.9169 67.89333 528.26 67.89333C526.60315 67.89333 525.26 66.550186 525.26 64.89333C525.26 63.23648 526.60315 61.893333 528.26 61.893333C529.9169 61.893333 531.26 63.23648 531.26 64.89333Z" fill-rule="nonzero"/><path fill="#000000" fill-opacity="0.0" clip-path="url(#id_0)" d="M584.45 60.90111C584.45 62.557964 583.1069 63.90111 581.45 63.90111C579.79315 63.90111 578.45 62.557964 578.45 60.90111C578.45 59.244255 579.79315 57.90111 581.45 57.90111C583.1069 57.90111 584.45 59.244255 584.45 60.90111Z" fill-rule="nonzero"/><path fill="#000000" fill-opacity="0.0" clip-path="url(#id_0)" d="M79.145 284.46555C79.145 286.1224 77.80186 287.46555 76.145 287.46555C74.488144 287.46555 73.145 286.1224 73.145 284.46555C73.145 282.80872 74.488144 281.46555 76.145 281.46555C77.80186 281.46555 79.145 282.80872 79.145 284.46555Z" fill-rule="nonzero"/><path fill="#000000" fill-opacity="0.0" clip-path="url(#id_0)" d="M105.74 232.56667C105.74 234.22353 104.39685 235.56667 102.74 235.56667C101.083145 235.56667 99.74 234.22353 99.74 232.56667C99.74 230.9098 101.083145 229.56667 102.74 229.56667C104.39685 229.56667 105.74 230.9098 105.74 232.56667Z" fill-rule="nonzero"/><path fill="#000000" fill-opacity="0.0" clip-path="url(#id_0)" d="M132.335 176.67555C132.335 178.33241 130.99185 179.67555 129.335 179.67555C127.67815 179.67555 126.335 178.33241 126.335 176.67555C126.335 175.0187 127.67815 173.67555 129.335 173.67555C130.99185 173.67555 132.335 175.0187 132.335 176.67555Z" fill-rule="nonzero"/><path fill="#000000" fill-opacity="0.0" clip-path="url(#id_0)" d="M158.93 152.72223C158.93 154.37907 157.58685 155.72223 155.93 155.72223C154.27315 155.72223 152.93 154.37907 152.93 152.72223C152.93 151.06537 154.27315 149.72223 155.93 149.72223C157.58685 149.72223 158.93 151.06537 158.93 152.72223Z" fill-rule="nonzero"/><path fill="#000000" fill-opacity="0.0" clip-path="url(#id_0)" d="M185.525 124.776665C185.525 126.43352 184.18185 127.776665 182.525 127.776665C180.86815 127.776665 179.525 126.43352 179.525 124.776665C179.525 123.11981 180.86815 121.776665 182.525 121.776665C184.18185 121.776665 185.525 123.11981 185.525 124.776665Z" fill-rule="nonzero"/><path fill="#000000" fill-opacity="0.0" clip-path="url(#id_0)" d="M212.12 116.79222C212.12 118.44907 210.77686 119.79222 209.12 119.79222C207.46315 119.79222 206.12 118.44907 206.12 116.79222C206.12 115.13537 207.46315 113.79222 209.12 113.79222C210.77686 113.79222 212.12 115.13537 212.12 116.79222Z" fill-rule="nonzero"/><path fill="#000000" fill-opacity="0.0" clip-path="url(#id_0)" d="M238.715 92.83889C238.715 94.49574 237.37186 95.83889 235.715 95.83889C234.05815 95.83889 232.715 94.49574 232.715 92.83889C232.715 91.18204 234.05815 89.83889 235.715 89.83889C237.37186 89.83889 238.715 91.18204 238.715 92.83889Z" fill-rule="nonzero"/><path fill="#000000" fill-opacity="0.0" clip-path="url(#id_0)" d="M265.31 96.83111C265.31 98.48797 263.96686 99.83111 262.31 99.83111C260.65314 99.83111 259.31 98.48797 259.31 96.83111C259.31 95.174255 260.65314 93.83111 262.31 93.83111C263.96686 93.83111 265.31 95.174255 265.31 96.83111Z" fill-rule="nonzero"/><path fill="#000000" fill-opacity="0.0" clip-path="url(#id_0)" d="M291.905 92.83889C291.905 94.49574 290.56186 95.83889 288.905 95.83889C287.24814 95.83889 285.905 94.49574 285.905 92.83889C285.905 91.18204 287.24814 89.83889 288.905 89.83889C290.56186 89.83889 291.905 91.18204 291.905 92.83889Z" fill-rule="nonzero"/><path fill="#000000" fill-opacity="0.0" clip-path="url(#id_0)" d="M318.5 88.846664C318.5 90.50352 317.15686 91.846664 315.5 91.846664C313.84314 91.846664 312.5 90.50352 312.5 88.846664C312.5 87.18981 313.84314 85.846664 315.5 85.846664C317.15686 85.846664 318.5 87.18981 318.5 88.846664Z" fill-rule="nonzero"/><path fill="#000000" fill-opacity="0.0" clip-path="url(#id_0)" d="M371.69 84.85445C371.69 86.5113 370.34686 87.85445 368.69 87.85445C367.03314 87.85445 365.69 86.5113 365.69 84.85445C365.69 83.19759 367.03314 81.85445 368.69 81.85445C370.34686 81.85445 371.69 83.19759 371.69 84.85445Z" fill-rule="nonzero"/><path fill="#000000" fill-opacity="0.0" clip-path="url(#id_0)" d="M424.88 72.87778C424.88 74.53463 423.53687 75.87778 421.88 75.87778C420.22314 75.87778 418.88 74.53463 418.88 72.87778C418.88 71.220924 420.22314 69.87778 421.88 69.87778C423.53687 69.87778 424.88 71.220924 424.88 72.87778Z" fill-rule="nonzero"/><path fill="#000000" fill-opacity="0.0" clip-path="url(#id_0)" d="M478.07 72.87778C478.07 74.53463 476.72687 75.87778 475.07 75.87778C473.41315 75.87778 472.07 74.53463 472.07 72.87778C472.07 71.220924 473.41315 69.87778 475.07 69.87778C476.72687 69.87778 478.07 71.220924 478.07 72.87778Z" fill-rule="nonzero"/><path fill="#000000" fill-opacity="0.0" clip-path="url(#id_0)" d="M531.26 72.87778C531.26 74.53463 529.9169 75.87778 528.26 75.87778C526.60315 75.87778 525.26 74.53463 525.26 72.87778C525.26 71.220924 526.60315 69.87778 528.26 69.87778C529.9169 69.87778 531.26 71.220924 531.26 72.87778Z" fill-rule="nonzero"/><path fill="#000000" fill-opacity="0.0" clip-path="url(#id_0)" d="M584.45 72.87778C584.45 74.53463 583.1069 75.87778 581.45 75.87778C579.79315 75.87778 578.45 74.53463 578.45 72.87778C578.45 71.220924 579.79315 69.87778 581.45 69.87778C583.1069 69.87778 584.45 71.220924 584.45 72.87778Z" fill-rule="nonzero"/><path fill="#000000" d="M280.125 346.23126L281.375 346.1219Q281.46875 346.8719 281.79688 347.35626Q282.125 347.84064 282.79688 348.1375Q283.48438 348.4344 284.34375 348.4344Q285.09375 348.4344 285.67188 348.21564Q286.26562 347.98126 286.54688 347.59064Q286.82812 347.2 286.82812 346.73126Q286.82812 346.2625 286.54688 345.91876Q286.28125 345.5594 285.65625 345.3094Q285.25 345.15314 283.85938 344.825Q282.48438 344.4969 281.9375 344.2Q281.21875 343.825 280.85938 343.27814Q280.51562 342.71564 280.51562 342.0125Q280.51562 341.2625 280.9375 340.60626Q281.375 339.9344 282.20312 339.60626Q283.03125 339.2625 284.04688 339.2625Q285.15625 339.2625 286.0 339.6219Q286.85938 339.98126 287.3125 340.6844Q287.76562 341.3719 287.8125 342.2469L286.53125 342.34064Q286.4375 341.40314 285.84375 340.91876Q285.25 340.41876 284.09375 340.41876Q282.89062 340.41876 282.34375 340.8719Q281.79688 341.3094 281.79688 341.9344Q281.79688 342.46564 282.1875 342.825Q282.5625 343.16876 284.17188 343.54376Q285.79688 343.90314 286.39062 344.16876Q287.26562 344.575 287.6875 345.2Q288.10938 345.8094 288.10938 346.6219Q288.10938 347.41876 287.64062 348.1375Q287.1875 348.84064 286.32812 349.23126Q285.46875 349.6219 284.40625 349.6219Q283.04688 349.6219 282.125 349.23126Q281.20312 348.825 280.67188 348.02814Q280.15625 347.23126 280.125 346.23126ZM294.1875 349.45L294.1875 348.3875Q293.32812 349.6219 291.875 349.6219Q291.23438 349.6219 290.67188 349.3719Q290.125 349.1219 289.84375 348.7469Q289.57812 348.3719 289.46875 347.84064Q289.39062 347.48126 289.39062 346.6844L289.39062 342.1844L290.625 342.1844L290.625 346.21564Q290.625 347.1844 290.70312 347.5125Q290.8125 347.9969 291.1875 348.27814Q291.5625 348.5594 292.125 348.5594Q292.67188 348.5594 293.15625 348.27814Q293.64062 347.98126 293.84375 347.4969Q294.04688 347.0125 294.04688 346.075L294.04688 342.1844L295.28125 342.1844L295.28125 349.45L294.1875 349.45ZM298.5625 349.45L297.42188 349.45L297.42188 339.4344L298.64062 339.4344L298.64062 342.9969Q299.42188 342.02814 300.64062 342.02814Q301.3125 342.02814 301.90625 342.29376Q302.5 342.5594 302.89062 343.0594Q303.28125 343.54376 303.5 344.23126Q303.71875 344.91876 303.71875 345.71564Q303.71875 347.575 302.78125 348.60626Q301.85938 349.6219 300.57812 349.6219Q299.29688 349.6219 298.5625 348.54376L298.5625 349.45ZM298.54688 345.7625Q298.54688 347.075 298.90625 347.65314Q299.48438 348.60626 300.46875 348.60626Q301.28125 348.60626 301.85938 347.90314Q302.45312 347.2 302.45312 345.8094Q302.45312 344.3875 301.89062 343.71564Q301.32812 343.04376 300.53125 343.04376Q299.71875 343.04376 299.125 343.7469Q298.54688 344.4344 298.54688 345.7625ZM304.9375 347.27814L306.14062 347.09064Q306.25 347.825 306.71875 348.21564Q307.1875 348.60626 308.03125 348.60626Q308.875 348.60626 309.28125 348.2625Q309.70312 347.91876 309.70312 347.45Q309.70312 347.02814 309.32812 346.79376Q309.07812 346.6219 308.07812 346.3719Q306.71875 346.02814 306.1875 345.77814Q305.67188 345.52814 305.40625 345.09064Q305.14062 344.65314 305.14062 344.1219Q305.14062 343.6375 305.35938 343.23126Q305.57812 342.8094 305.96875 342.52814Q306.25 342.325 306.73438 342.1844Q307.23438 342.02814 307.8125 342.02814Q308.65625 342.02814 309.29688 342.27814Q309.95312 342.5125 310.26562 342.9344Q310.57812 343.35626 310.6875 344.0594L309.48438 344.23126Q309.40625 343.66876 309.0 343.35626Q308.60938 343.04376 307.89062 343.04376Q307.04688 343.04376 306.6875 343.325Q306.32812 343.59064 306.32812 343.98126Q306.32812 344.21564 306.46875 344.40314Q306.625 344.60626 306.95312 344.73126Q307.125 344.79376 308.03125 345.04376Q309.34375 345.40314 309.85938 345.6219Q310.375 345.84064 310.65625 346.2625Q310.95312 346.6844 310.95312 347.3094Q310.95312 347.9344 310.59375 348.48126Q310.25 349.0125 309.5625 349.325Q308.89062 349.6219 308.03125 349.6219Q306.625 349.6219 305.875 349.02814Q305.14062 348.4344 304.9375 347.27814ZM317.39062 347.10626L318.67188 347.2625Q318.35938 348.3875 317.54688 349.0125Q316.73438 349.6219 315.46875 349.6219Q313.875 349.6219 312.9375 348.6375Q312.01562 347.65314 312.01562 345.8875Q312.01562 344.04376 312.95312 343.04376Q313.90625 342.02814 315.40625 342.02814Q316.85938 342.02814 317.78125 343.02814Q318.70312 344.0125 318.70312 345.8094Q318.70312 345.91876 318.70312 346.1375L313.28125 346.1375Q313.35938 347.325 313.95312 347.96564Q314.5625 348.60626 315.48438 348.60626Q316.15625 348.60626 316.625 348.2469Q317.10938 347.8875 317.39062 347.10626ZM313.35938 345.1219L317.40625 345.1219Q317.32812 344.2 316.9375 343.7469Q316.35938 343.04376 315.42188 343.04376Q314.5625 343.04376 313.98438 343.60626Q313.42188 344.16876 313.35938 345.1219ZM323.10938 348.35626L323.28125 349.4344Q322.76562 349.54376 322.35938 349.54376Q321.6875 349.54376 321.3125 349.34064Q320.95312 349.1219 320.79688 348.77814Q320.65625 348.4344 320.65625 347.325L320.65625 343.15314L319.75 343.15314L319.75 342.1844L320.65625 342.1844L320.65625 340.3875L321.875 339.65314L321.875 342.1844L323.10938 342.1844L323.10938 343.15314L321.875 343.15314L321.875 347.3875Q321.875 347.91876 321.9375 348.075Q322.0 348.21564 322.14062 348.3094Q322.29688 348.40314 322.5625 348.40314Q322.78125 348.40314 323.10938 348.35626ZM327.9375 347.27814L329.14062 347.09064Q329.25 347.825 329.71875 348.21564Q330.1875 348.60626 331.03125 348.60626Q331.875 348.60626 332.28125 348.2625Q332.70312 347.91876 332.70312 347.45Q332.70312 347.02814 332.32812 346.79376Q332.07812 346.6219 331.07812 346.3719Q329.71875 346.02814 329.1875 345.77814Q328.67188 345.52814 328.40625 345.09064Q328.14062 344.65314 328.14062 344.1219Q328.14062 343.6375 328.35938 343.23126Q328.57812 342.8094 328.96875 342.52814Q329.25 342.325 329.73438 342.1844Q330.23438 342.02814 330.8125 342.02814Q331.65625 342.02814 332.29688 342.27814Q332.95312 342.5125 333.26562 342.9344Q333.57812 343.35626 333.6875 344.0594L332.48438 344.23126Q332.40625 343.66876 332.0 343.35626Q331.60938 343.04376 330.89062 343.04376Q330.04688 343.04376 329.6875 343.325Q329.32812 343.59064 329.32812 343.98126Q329.32812 344.21564 329.46875 344.40314Q329.625 344.60626 329.95312 344.73126Q330.125 344.79376 331.03125 345.04376Q332.34375 345.40314 332.85938 345.6219Q333.375 345.84064 333.65625 346.2625Q333.95312 346.6844 333.95312 347.3094Q333.95312 347.9344 333.59375 348.48126Q333.25 349.0125 332.5625 349.325Q331.89062 349.6219 331.03125 349.6219Q329.625 349.6219 328.875 349.02814Q328.14062 348.4344 327.9375 347.27814ZM335.4375 340.84064L335.4375 339.4344L336.65625 339.4344L336.65625 340.84064L335.4375 340.84064ZM335.4375 349.45L335.4375 342.1844L336.65625 342.1844L336.65625 349.45L335.4375 349.45ZM337.78125 349.45L337.78125 348.45L342.39062 343.15314Q341.60938 343.1844 341.0 343.1844L338.04688 343.1844L338.04688 342.1844L343.98438 342.1844L343.98438 342.9969L340.04688 347.60626L339.29688 348.45Q340.125 348.3875 340.84375 348.3875L344.20312 348.3875L344.20312 349.45L337.78125 349.45ZM349.39062 347.10626L350.67188 347.2625Q350.35938 348.3875 349.54688 349.0125Q348.73438 349.6219 347.46875 349.6219Q345.875 349.6219 344.9375 348.6375Q344.01562 347.65314 344.01562 345.8875Q344.01562 344.04376 344.95312 343.04376Q345.90625 342.02814 347.40625 342.02814Q348.85938 342.02814 349.78125 343.02814Q350.70312 344.0125 350.70312 345.8094Q350.70312 345.91876 350.70312 346.1375L345.28125 346.1375Q345.35938 347.325 345.95312 347.96564Q346.5625 348.60626 347.48438 348.60626Q348.15625 348.60626 348.625 348.2469Q349.10938 347.8875 349.39062 347.10626ZM345.35938 345.1219L349.40625 345.1219Q349.32812 344.2 348.9375 343.7469Q348.35938 343.04376 347.42188 343.04376Q346.5625 343.04376 345.98438 343.60626Q345.42188 344.16876 345.35938 345.1219Z" fill-rule="nonzero"/><path fill="#000000" d="M23.128124 292.5125Q23.128124 290.73126 23.4875 289.65314Q23.8625 288.5594 24.58125 287.98126Q25.3 287.3875 26.39375 287.3875Q27.20625 287.3875 27.815624 287.71564Q28.425 288.04376 28.815624 288.65314Q29.221874 289.2625 29.440624 290.1375Q29.659374 291.0125 29.659374 292.5125Q29.659374 294.27814 29.3 295.35626Q28.940624 296.4344 28.221874 297.02814Q27.503124 297.6219 26.39375 297.6219Q24.95625 297.6219 24.128124 296.575Q23.128124 295.325 23.128124 292.5125ZM24.39375 292.5125Q24.39375 294.98126 24.971874 295.79376Q25.55 296.60626 26.39375 296.60626Q27.253124 296.60626 27.83125 295.79376Q28.409374 294.96564 28.409374 292.5125Q28.409374 290.02814 27.83125 289.21564Q27.253124 288.40314 26.378124 288.40314Q25.534374 288.40314 25.034374 289.1219Q24.39375 290.04376 24.39375 292.5125ZM31.815624 297.45L31.815624 296.04376L33.221874 296.04376L33.221874 297.45L31.815624 297.45ZM39.08125 297.45L39.08125 295.04376L34.721874 295.04376L34.721874 293.91876L39.3 287.4344L40.3 287.4344L40.3 293.91876L41.659374 293.91876L41.659374 295.04376L40.3 295.04376L40.3 297.45L39.08125 297.45ZM39.08125 293.91876L39.08125 289.40314L35.940624 293.91876L39.08125 293.91876Z" fill-rule="nonzero"/><path fill="#000000" d="M23.128124 212.66806Q23.128124 210.88681 23.4875 209.80869Q23.8625 208.71494 24.58125 208.13681Q25.3 207.54306 26.39375 207.54306Q27.20625 207.54306 27.815624 207.87119Q28.425 208.19931 28.815624 208.80869Q29.221874 209.41806 29.440624 210.29306Q29.659374 211.16806 29.659374 212.66806Q29.659374 214.43369 29.3 215.51181Q28.940624 216.58994 28.221874 217.18369Q27.503124 217.77744 26.39375 217.77744Q24.95625 217.77744 24.128124 216.73056Q23.128124 215.48056 23.128124 212.66806ZM24.39375 212.66806Q24.39375 215.13681 24.971874 215.94931Q25.55 216.76181 26.39375 216.76181Q27.253124 216.76181 27.83125 215.94931Q28.409374 215.12119 28.409374 212.66806Q28.409374 210.18369 27.83125 209.37119Q27.253124 208.55869 26.378124 208.55869Q25.534374 208.55869 25.034374 209.27744Q24.39375 210.19931 24.39375 212.66806ZM31.815624 217.60556L31.815624 216.19931L33.221874 216.19931L33.221874 217.60556L31.815624 217.60556ZM41.51875 210.04306L40.3 210.13681Q40.128124 209.40244 39.83125 209.07431Q39.33125 208.55869 38.596874 208.55869Q38.003124 208.55869 37.565624 208.88681Q36.9875 209.30869 36.64375 210.12119Q36.315624 210.93369 36.3 212.43369Q36.7375 211.76181 37.378124 211.43369Q38.034374 211.10556 38.7375 211.10556Q39.971874 211.10556 40.83125 212.01181Q41.690624 212.91806 41.690624 214.35556Q41.690624 215.29306 41.284374 216.10556Q40.878124 216.91806 40.159374 217.35556Q39.45625 217.77744 38.55 217.77744Q37.01875 217.77744 36.05 216.65244Q35.08125 215.51181 35.08125 212.91806Q35.08125 210.01181 36.14375 208.68369Q37.08125 207.54306 38.675 207.54306Q39.8625 207.54306 40.6125 208.21494Q41.3625 208.87119 41.51875 210.04306ZM36.4875 214.35556Q36.4875 214.99619 36.753124 215.57431Q37.034374 216.15244 37.51875 216.46494Q38.003124 216.76181 38.534374 216.76181Q39.315624 216.76181 39.878124 216.13681Q40.440624 215.51181 40.440624 214.43369Q40.440624 213.38681 39.878124 212.79306Q39.33125 212.18369 38.4875 212.18369Q37.659374 212.18369 37.065624 212.79306Q36.4875 213.38681 36.4875 214.35556Z" fill-rule="nonzero"/><path fill="#000000" d="M23.128124 132.82361Q23.128124 131.04236 23.4875 129.96423Q23.8625 128.87048 24.58125 128.29236Q25.3 127.69861 26.39375 127.69861Q27.20625 127.69861 27.815624 128.02673Q28.425 128.35486 28.815624 128.96423Q29.221874 129.57361 29.440624 130.44861Q29.659374 131.32361 29.659374 132.82361Q29.659374 134.58923 29.3 135.66736Q28.940624 136.74548 28.221874 137.33923Q27.503124 137.93298 26.39375 137.93298Q24.95625 137.93298 24.128124 136.88611Q23.128124 135.63611 23.128124 132.82361ZM24.39375 132.82361Q24.39375 135.29236 24.971874 136.10486Q25.55 136.91736 26.39375 136.91736Q27.253124 136.91736 27.83125 136.10486Q28.409374 135.27673 28.409374 132.82361Q28.409374 130.33923 27.83125 129.52673Q27.253124 128.71423 26.378124 128.71423Q25.534374 128.71423 25.034374 129.43298Q24.39375 130.35486 24.39375 132.82361ZM31.815624 137.76111L31.815624 136.35486L33.221874 136.35486L33.221874 137.76111L31.815624 137.76111ZM37.01875 132.32361Q36.253124 132.04236 35.878124 131.52673Q35.51875 131.01111 35.51875 130.27673Q35.51875 129.18298 36.3 128.44861Q37.096874 127.69861 38.39375 127.69861Q39.70625 127.69861 40.503124 128.46423Q41.315624 129.22986 41.315624 130.32361Q41.315624 131.01111 40.940624 131.52673Q40.58125 132.04236 39.83125 132.32361Q40.753124 132.62048 41.2375 133.29236Q41.721874 133.96423 41.721874 134.90173Q41.721874 136.18298 40.815624 137.05798Q39.909374 137.93298 38.425 137.93298Q36.940624 137.93298 36.01875 137.05798Q35.1125 136.16736 35.1125 134.85486Q35.1125 133.88611 35.6125 133.22986Q36.1125 132.55798 37.01875 132.32361ZM36.784374 130.24548Q36.784374 130.94861 37.2375 131.40173Q37.690624 131.85486 38.425 131.85486Q39.14375 131.85486 39.596874 131.41736Q40.05 130.96423 40.05 130.30798Q40.05 129.63611 39.58125 129.18298Q39.1125 128.71423 38.409374 128.71423Q37.70625 128.71423 37.2375 129.16736Q36.784374 129.60486 36.784374 130.24548ZM36.378124 134.87048Q36.378124 135.40173 36.628124 135.90173Q36.878124 136.38611 37.3625 136.65173Q37.8625 136.91736 38.440624 136.91736Q39.315624 136.91736 39.878124 136.35486Q40.45625 135.79236 40.45625 134.91736Q40.45625 134.02673 39.8625 133.44861Q39.284374 132.85486 38.39375 132.85486Q37.51875 132.85486 36.940624 133.43298Q36.378124 134.01111 36.378124 134.87048Z" fill-rule="nonzero"/><path fill="#000000" d="M27.76875 57.916668L26.534374 57.916668L26.534374 50.072918Q26.096874 50.494793 25.3625 50.932293Q24.64375 51.354168 24.08125 51.557293L24.08125 50.369793Q25.1125 49.885418 25.878124 49.197918Q26.659374 48.510418 26.971874 47.854168L27.76875 47.854168L27.76875 57.916668ZM31.815624 57.916668L31.815624 56.510418L33.221874 56.510418L33.221874 57.916668L31.815624 57.916668ZM35.128124 52.979168Q35.128124 51.197918 35.4875 50.119793Q35.8625 49.026043 36.58125 48.447918Q37.3 47.854168 38.39375 47.854168Q39.20625 47.854168 39.815624 48.182293Q40.425 48.510418 40.815624 49.119793Q41.221874 49.729168 41.440624 50.604168Q41.659374 51.479168 41.659374 52.979168Q41.659374 54.744793 41.3 55.822918Q40.940624 56.901043 40.221874 57.494793Q39.503124 58.088543 38.39375 58.088543Q36.95625 58.088543 36.128124 57.041668Q35.128124 55.791668 35.128124 52.979168ZM36.39375 52.979168Q36.39375 55.447918 36.971874 56.260418Q37.55 57.072918 38.39375 57.072918Q39.253124 57.072918 39.83125 56.260418Q40.409374 55.432293 40.409374 52.979168Q40.409374 50.494793 39.83125 49.682293Q39.253124 48.869793 38.378124 48.869793Q37.534374 48.869793 37.034374 49.588543Q36.39375 50.510418 36.39375 52.979168Z" fill-rule="nonzero"/><path fill="#000000" d="M46.128124 307.5125Q46.128124 305.73126 46.4875 304.65314Q46.8625 303.5594 47.58125 302.98126Q48.3 302.3875 49.39375 302.3875Q50.20625 302.3875 50.815624 302.71564Q51.425 303.04376 51.815624 303.65314Q52.221874 304.2625 52.440624 305.1375Q52.659374 306.0125 52.659374 307.5125Q52.659374 309.27814 52.3 310.35626Q51.940624 311.4344 51.221874 312.02814Q50.503124 312.6219 49.39375 312.6219Q47.95625 312.6219 47.128124 311.575Q46.128124 310.325 46.128124 307.5125ZM47.39375 307.5125Q47.39375 309.98126 47.971874 310.79376Q48.55 311.60626 49.39375 311.60626Q50.253124 311.60626 50.83125 310.79376Q51.409374 309.96564 51.409374 307.5125Q51.409374 305.02814 50.83125 304.21564Q50.253124 303.40314 49.378124 303.40314Q48.534374 303.40314 48.034374 304.1219Q47.39375 305.04376 47.39375 307.5125Z" fill-rule="nonzero"/><path fill="#000000" d="M177.57187 311.2625L177.57187 312.45L170.94687 312.45Q170.93124 312.0125 171.0875 311.59064Q171.35312 310.91876 171.9 310.2625Q172.4625 309.60626 173.50937 308.7469Q175.15 307.40314 175.7125 306.6219Q176.29062 305.84064 176.29062 305.1375Q176.29062 304.40314 175.75937 303.90314Q175.24374 303.40314 174.41562 303.40314Q173.525 303.40314 172.97812 303.9344Q172.44687 304.46564 172.44687 305.41876L171.18124 305.27814Q171.30624 303.8719 172.15 303.1375Q173.00937 302.3875 174.43124 302.3875Q175.88437 302.3875 176.7125 303.1844Q177.55624 303.98126 177.55624 305.16876Q177.55624 305.77814 177.30624 306.35626Q177.07187 306.9344 176.49374 307.575Q175.93124 308.21564 174.60312 309.34064Q173.49374 310.2625 173.18124 310.60626Q172.86874 310.9344 172.66562 311.2625L177.57187 311.2625ZM179.10312 309.825L180.4 309.71564Q180.54062 310.65314 181.05624 311.1375Q181.5875 311.60626 182.32187 311.60626Q183.2125 311.60626 183.82187 310.9344Q184.44687 310.2625 184.44687 309.16876Q184.44687 308.10626 183.85312 307.4969Q183.25937 306.8875 182.30624 306.8875Q181.7125 306.8875 181.22812 307.16876Q180.75937 307.4344 180.47812 307.85626L179.32187 307.71564L180.29062 302.5594L185.275 302.5594L185.275 303.7469L181.275 303.7469L180.74374 306.4344Q181.65 305.8094 182.63437 305.8094Q183.94687 305.8094 184.8375 306.71564Q185.74374 307.6219 185.74374 309.0594Q185.74374 310.41876 184.9625 311.40314Q183.99374 312.6219 182.32187 312.6219Q180.9625 312.6219 180.0875 311.85626Q179.22812 311.09064 179.10312 309.825ZM187.10312 307.5125Q187.10312 305.73126 187.4625 304.65314Q187.8375 303.5594 188.55624 302.98126Q189.275 302.3875 190.36874 302.3875Q191.18124 302.3875 191.79062 302.71564Q192.4 303.04376 192.79062 303.65314Q193.19687 304.2625 193.41562 305.1375Q193.63437 306.0125 193.63437 307.5125Q193.63437 309.27814 193.275 310.35626Q192.91562 311.4344 192.19687 312.02814Q191.47812 312.6219 190.36874 312.6219Q188.93124 312.6219 188.10312 311.575Q187.10312 310.325 187.10312 307.5125ZM188.36874 307.5125Q188.36874 309.98126 188.94687 310.79376Q189.525 311.60626 190.36874 311.60626Q191.22812 311.60626 191.80624 310.79376Q192.38437 309.96564 192.38437 307.5125Q192.38437 305.02814 191.80624 304.21564Q191.22812 303.40314 190.35312 303.40314Q189.50937 303.40314 189.00937 304.1219Q188.36874 305.04376 188.36874 307.5125Z" fill-rule="nonzero"/><path fill="#000000" d="M304.07812 309.825L305.375 309.71564Q305.51562 310.65314 306.03125 311.1375Q306.5625 311.60626 307.29688 311.60626Q308.1875 311.60626 308.79688 310.9344Q309.42188 310.2625 309.42188 309.16876Q309.42188 308.10626 308.82812 307.4969Q308.23438 306.8875 307.28125 306.8875Q306.6875 306.8875 306.20312 307.16876Q305.73438 307.4344 305.45312 307.85626L304.29688 307.71564L305.26562 302.5594L310.25 302.5594L310.25 303.7469L306.25 303.7469L305.71875 306.4344Q306.625 305.8094 307.60938 305.8094Q308.92188 305.8094 309.8125 306.71564Q310.71875 307.6219 310.71875 309.0594Q310.71875 310.41876 309.9375 311.40314Q308.96875 312.6219 307.29688 312.6219Q305.9375 312.6219 305.0625 311.85626Q304.20312 311.09064 304.07812 309.825ZM312.07812 307.5125Q312.07812 305.73126 312.4375 304.65314Q312.8125 303.5594 313.53125 302.98126Q314.25 302.3875 315.34375 302.3875Q316.15625 302.3875 316.76562 302.71564Q317.375 303.04376 317.76562 303.65314Q318.17188 304.2625 318.39062 305.1375Q318.60938 306.0125 318.60938 307.5125Q318.60938 309.27814 318.25 310.35626Q317.89062 311.4344 317.17188 312.02814Q316.45312 312.6219 315.34375 312.6219Q313.90625 312.6219 313.07812 311.575Q312.07812 310.325 312.07812 307.5125ZM313.34375 307.5125Q313.34375 309.98126 313.92188 310.79376Q314.5 311.60626 315.34375 311.60626Q316.20312 311.60626 316.78125 310.79376Q317.35938 309.96564 317.35938 307.5125Q317.35938 305.02814 316.78125 304.21564Q316.20312 303.40314 315.32812 303.40314Q314.48438 303.40314 313.98438 304.1219Q313.34375 305.04376 313.34375 307.5125ZM320.07812 307.5125Q320.07812 305.73126 320.4375 304.65314Q320.8125 303.5594 321.53125 302.98126Q322.25 302.3875 323.34375 302.3875Q324.15625 302.3875 324.76562 302.71564Q325.375 303.04376 325.76562 303.65314Q326.17188 304.2625 326.39062 305.1375Q326.60938 306.0125 326.60938 307.5125Q326.60938 309.27814 326.25 310.35626Q325.89062 311.4344 325.17188 312.02814Q324.45312 312.6219 323.34375 312.6219Q321.90625 312.6219 321.07812 311.575Q320.07812 310.325 320.07812 307.5125ZM321.34375 307.5125Q321.34375 309.98126 321.92188 310.79376Q322.5 311.60626 323.34375 311.60626Q324.20312 311.60626 324.78125 310.79376Q325.35938 309.96564 325.35938 307.5125Q325.35938 305.02814 324.78125 304.21564Q324.20312 303.40314 323.32812 303.40314Q322.48438 303.40314 321.98438 304.1219Q321.34375 305.04376 321.34375 307.5125Z" fill-rule="nonzero"/><path fill="#000000" d="M437.13126 303.7469L437.13126 302.5594L443.63126 302.5594L443.63126 303.5125Q442.6625 304.52814 441.725 306.21564Q440.7875 307.90314 440.27188 309.7Q439.9125 310.95 439.80313 312.45L438.5375 312.45Q438.55313 311.2625 438.99063 309.59064Q439.44376 307.91876 440.27188 306.3719Q441.11563 304.8094 442.05313 303.7469L437.13126 303.7469ZM445.05313 309.825L446.35 309.71564Q446.49063 310.65314 447.00626 311.1375Q447.5375 311.60626 448.27188 311.60626Q449.1625 311.60626 449.77188 310.9344Q450.39688 310.2625 450.39688 309.16876Q450.39688 308.10626 449.80313 307.4969Q449.20938 306.8875 448.25626 306.8875Q447.6625 306.8875 447.17813 307.16876Q446.70938 307.4344 446.42813 307.85626L445.27188 307.71564L446.24063 302.5594L451.225 302.5594L451.225 303.7469L447.225 303.7469L446.69376 306.4344Q447.6 305.8094 448.58438 305.8094Q449.89688 305.8094 450.7875 306.71564Q451.69376 307.6219 451.69376 309.0594Q451.69376 310.41876 450.9125 311.40314Q449.94376 312.6219 448.27188 312.6219Q446.9125 312.6219 446.0375 311.85626Q445.17813 311.09064 445.05313 309.825ZM453.05313 307.5125Q453.05313 305.73126 453.4125 304.65314Q453.7875 303.5594 454.50626 302.98126Q455.225 302.3875 456.31876 302.3875Q457.13126 302.3875 457.74063 302.71564Q458.35 303.04376 458.74063 303.65314Q459.14688 304.2625 459.36563 305.1375Q459.58438 306.0125 459.58438 307.5125Q459.58438 309.27814 459.225 310.35626Q458.86563 311.4344 458.14688 312.02814Q457.42813 312.6219 456.31876 312.6219Q454.88126 312.6219 454.05313 311.575Q453.05313 310.325 453.05313 307.5125ZM454.31876 307.5125Q454.31876 309.98126 454.89688 310.79376Q455.475 311.60626 456.31876 311.60626Q457.17813 311.60626 457.75626 310.79376Q458.33438 309.96564 458.33438 307.5125Q458.33438 305.02814 457.75626 304.21564Q457.17813 303.40314 456.30313 303.40314Q455.45938 303.40314 454.95938 304.1219Q454.31876 305.04376 454.31876 307.5125Z" fill-rule="nonzero"/><path fill="#000000" d="M570.66876 312.45L569.4344 312.45L569.4344 304.60626Q568.9969 305.02814 568.2625 305.46564Q567.54376 305.8875 566.98126 306.09064L566.98126 304.90314Q568.0125 304.41876 568.77814 303.73126Q569.5594 303.04376 569.8719 302.3875L570.66876 302.3875L570.66876 312.45ZM574.02814 307.5125Q574.02814 305.73126 574.3875 304.65314Q574.7625 303.5594 575.48126 302.98126Q576.2 302.3875 577.29376 302.3875Q578.10626 302.3875 578.71564 302.71564Q579.325 303.04376 579.71564 303.65314Q580.1219 304.2625 580.34064 305.1375Q580.5594 306.0125 580.5594 307.5125Q580.5594 309.27814 580.2 310.35626Q579.84064 311.4344 579.1219 312.02814Q578.40314 312.6219 577.29376 312.6219Q575.85626 312.6219 575.02814 311.575Q574.02814 310.325 574.02814 307.5125ZM575.29376 307.5125Q575.29376 309.98126 575.8719 310.79376Q576.45 311.60626 577.29376 311.60626Q578.15314 311.60626 578.73126 310.79376Q579.3094 309.96564 579.3094 307.5125Q579.3094 305.02814 578.73126 304.21564Q578.15314 303.40314 577.27814 303.40314Q576.4344 303.40314 575.9344 304.1219Q575.29376 305.04376 575.29376 307.5125ZM582.02814 307.5125Q582.02814 305.73126 582.3875 304.65314Q582.7625 303.5594 583.48126 302.98126Q584.2 302.3875 585.29376 302.3875Q586.10626 302.3875 586.71564 302.71564Q587.325 303.04376 587.71564 303.65314Q588.1219 304.2625 588.34064 305.1375Q588.5594 306.0125 588.5594 307.5125Q588.5594 309.27814 588.2 310.35626Q587.84064 311.4344 587.1219 312.02814Q586.40314 312.6219 585.29376 312.6219Q583.85626 312.6219 583.02814 311.575Q582.02814 310.325 582.02814 307.5125ZM583.29376 307.5125Q583.29376 309.98126 583.8719 310.79376Q584.45 311.60626 585.29376 311.60626Q586.15314 311.60626 586.73126 310.79376Q587.3094 309.96564 587.3094 307.5125Q587.3094 305.02814 586.73126 304.21564Q586.15314 303.40314 585.27814 303.40314Q584.4344 303.40314 583.9344 304.1219Q583.29376 305.04376 583.29376 307.5125ZM590.02814 307.5125Q590.02814 305.73126 590.3875 304.65314Q590.7625 303.5594 591.48126 302.98126Q592.2 302.3875 593.29376 302.3875Q594.10626 302.3875 594.71564 302.71564Q595.325 303.04376 595.71564 303.65314Q596.1219 304.2625 596.34064 305.1375Q596.5594 306.0125 596.5594 307.5125Q596.5594 309.27814 596.2 310.35626Q595.84064 311.4344 595.1219 312.02814Q594.40314 312.6219 593.29376 312.6219Q591.85626 312.6219 591.02814 311.575Q590.02814 310.325 590.02814 307.5125ZM591.29376 307.5125Q591.29376 309.98126 591.8719 310.79376Q592.45 311.60626 593.29376 311.60626Q594.15314 311.60626 594.73126 310.79376Q595.3094 309.96564 595.3094 307.5125Q595.3094 305.02814 594.73126 304.21564Q594.15314 303.40314 593.27814 303.40314Q592.4344 303.40314 591.9344 304.1219Q591.29376 305.04376 591.29376 307.5125Z" fill-rule="nonzero"/><path stroke="#48bec6" stroke-width="4.0" stroke-linecap="butt" d="M39.145508 27.55L51.145508 27.55" fill-rule="nonzero"/><path fill="#1a1a1a" d="M60.176758 32.55L60.176758 22.534374L63.926758 22.534374Q65.08301 22.534374 65.77051 22.846874Q66.47363 23.14375 66.86426 23.76875Q67.25488 24.39375 67.25488 25.096874Q67.25488 25.7375 66.89551 26.3Q66.55176 26.8625 65.84863 27.221874Q66.75488 27.4875 67.23926 28.128124Q67.73926 28.76875 67.73926 29.64375Q67.73926 30.346874 67.44238 30.95625Q67.14551 31.565624 66.70801 31.89375Q66.27051 32.221874 65.59863 32.39375Q64.94238 32.55 63.989258 32.55L60.176758 32.55ZM61.504883 26.7375L63.661133 26.7375Q64.55176 26.7375 64.92676 26.628124Q65.44238 26.471874 65.69238 26.128124Q65.94238 25.76875 65.94238 25.253124Q65.94238 24.753124 65.70801 24.378124Q65.47363 23.9875 65.02051 23.846874Q64.58301 23.70625 63.504883 23.70625L61.504883 23.70625L61.504883 26.7375ZM61.504883 31.3625L63.989258 31.3625Q64.62988 31.3625 64.89551 31.315624Q65.34863 31.2375 65.66113 31.05Q65.97363 30.846874 66.16113 30.4875Q66.36426 30.128124 66.36426 29.64375Q66.36426 29.08125 66.06738 28.675Q65.78613 28.253124 65.27051 28.096874Q64.77051 27.925 63.817383 27.925L61.504883 27.925L61.504883 31.3625ZM73.80176 31.659374Q73.12988 32.2375 72.48926 32.4875Q71.86426 32.721874 71.12988 32.721874Q69.94238 32.721874 69.28613 32.14375Q68.64551 31.55 68.64551 30.628124Q68.64551 30.096874 68.87988 29.659374Q69.12988 29.221874 69.52051 28.95625Q69.92676 28.690624 70.41113 28.55Q70.77051 28.45625 71.50488 28.3625Q73.00488 28.190624 73.70801 27.940624Q73.70801 27.690624 73.70801 27.628124Q73.70801 26.8625 73.36426 26.565624Q72.89551 26.14375 71.95801 26.14375Q71.09863 26.14375 70.67676 26.45625Q70.27051 26.753124 70.06738 27.51875L68.86426 27.3625Q69.02051 26.58125 69.39551 26.1125Q69.78613 25.64375 70.48926 25.39375Q71.20801 25.128124 72.14551 25.128124Q73.06738 25.128124 73.64551 25.346874Q74.22363 25.565624 74.48926 25.89375Q74.77051 26.221874 74.87988 26.7375Q74.94238 27.05 74.94238 27.8625L74.94238 29.503124Q74.94238 31.221874 75.02051 31.675Q75.09863 32.128124 75.33301 32.55L74.05176 32.55Q73.86426 32.159374 73.80176 31.659374ZM73.70801 28.909374Q73.03613 29.175 71.69238 29.378124Q70.94238 29.4875 70.61426 29.628124Q70.30176 29.753124 70.12988 30.01875Q69.95801 30.284374 69.95801 30.596874Q69.95801 31.096874 70.33301 31.425Q70.70801 31.753124 71.42676 31.753124Q72.14551 31.753124 72.69238 31.440624Q73.23926 31.128124 73.50488 30.58125Q73.70801 30.175 73.70801 29.3625L73.70801 28.909374ZM81.80176 29.89375L83.02051 30.05Q82.81738 31.3 81.98926 32.01875Q81.17676 32.721874 79.98926 32.721874Q78.50488 32.721874 77.59863 31.753124Q76.69238 30.76875 76.69238 28.940624Q76.69238 27.76875 77.08301 26.89375Q77.47363 26.003124 78.27051 25.565624Q79.06738 25.128124 80.00488 25.128124Q81.17676 25.128124 81.92676 25.721874Q82.69238 26.315624 82.89551 27.425L81.70801 27.6125Q81.53613 26.878124 81.09863 26.51875Q80.66113 26.14375 80.05176 26.14375Q79.11426 26.14375 78.53613 26.815624Q77.95801 27.471874 77.95801 28.909374Q77.95801 30.378124 78.52051 31.05Q79.08301 31.70625 79.97363 31.70625Q80.70801 31.70625 81.19238 31.26875Q81.67676 30.815624 81.80176 29.89375ZM84.08301 32.55L84.08301 22.534374L85.30176 22.534374L85.30176 28.2375L88.22363 25.284374L89.81738 25.284374L87.03613 27.9875L90.09863 32.55L88.56738 32.55L86.17676 28.83125L85.30176 29.675L85.30176 32.55L84.08301 32.55Z" fill-rule="nonzero"/><path stroke="#4588f4" stroke-width="4.0" stroke-linecap="butt" d="M106.14551 27.55L118.14551 27.55" fill-rule="nonzero"/><path fill="#1a1a1a" d="M127.30176 32.55L127.30176 22.534374L134.05176 22.534374L134.05176 23.70625L128.61426 23.70625L128.61426 26.815624L133.31738 26.815624L133.31738 28.003124L128.61426 28.003124L128.61426 32.55L127.30176 32.55ZM136.05176 32.55L136.05176 25.284374L137.16113 25.284374L137.16113 26.39375Q137.58301 25.6125 137.94238 25.378124Q138.30176 25.128124 138.73926 25.128124Q139.36426 25.128124 140.00488 25.51875L139.58301 26.659374Q139.12988 26.39375 138.67676 26.39375Q138.27051 26.39375 137.94238 26.64375Q137.62988 26.878124 137.48926 27.315624Q137.28613 27.971874 137.28613 28.753124L137.28613 32.55L136.05176 32.55ZM140.61426 28.925Q140.61426 26.909374 141.73926 25.925Q142.66113 25.128124 144.02051 25.128124Q145.50488 25.128124 146.45801 26.1125Q147.41113 27.08125 147.41113 28.815624Q147.41113 30.221874 146.98926 31.034374Q146.56738 31.83125 145.75488 32.284374Q144.95801 32.721874 144.02051 32.721874Q142.48926 32.721874 141.55176 31.7375Q140.61426 30.753124 140.61426 28.925ZM141.87988 28.925Q141.87988 30.315624 142.48926 31.01875Q143.09863 31.70625 144.02051 31.70625Q144.92676 31.70625 145.53613 31.003124Q146.14551 30.3 146.14551 28.878124Q146.14551 27.534374 145.53613 26.846874Q144.92676 26.14375 144.02051 26.14375Q143.09863 26.14375 142.48926 26.83125Q141.87988 27.51875 141.87988 28.925ZM149.06738 32.55L149.06738 25.284374L150.17676 25.284374L150.17676 26.315624Q150.97363 25.128124 152.48926 25.128124Q153.14551 25.128124 153.69238 25.3625Q154.23926 25.596874 154.50488 25.9875Q154.78613 26.3625 154.89551 26.89375Q154.97363 27.2375 154.97363 28.08125L154.97363 32.55L153.73926 32.55L153.73926 28.128124Q153.73926 27.378124 153.59863 27.01875Q153.45801 26.64375 153.08301 26.425Q152.72363 26.190624 152.22363 26.190624Q151.44238 26.190624 150.86426 26.690624Q150.30176 27.190624 150.30176 28.58125L150.30176 32.55L149.06738 32.55ZM159.75488 31.45625L159.92676 32.534374Q159.41113 32.64375 159.00488 32.64375Q158.33301 32.64375 157.95801 32.440624Q157.59863 32.221874 157.44238 31.878124Q157.30176 31.534374 157.30176 30.425L157.30176 26.253124L156.39551 26.253124L156.39551 25.284374L157.30176 25.284374L157.30176 23.4875L158.52051 22.753124L158.52051 25.284374L159.75488 25.284374L159.75488 26.253124L158.52051 26.253124L158.52051 30.4875Q158.52051 31.01875 158.58301 31.175Q158.64551 31.315624 158.78613 31.409374Q158.94238 31.503124 159.20801 31.503124Q159.42676 31.503124 159.75488 31.45625Z" fill-rule="nonzero"/><path stroke="#fbbc04" stroke-width="4.0" stroke-linecap="butt" d="M176.14551 27.55L188.14551 27.55" fill-rule="nonzero"/><path fill="#1a1a1a" d="M197.17676 32.55L197.17676 22.534374L198.50488 22.534374L198.50488 31.3625L203.42676 31.3625L203.42676 32.55L197.17676 32.55ZM210.03613 30.20625L211.31738 30.3625Q211.00488 31.4875 210.19238 32.1125Q209.37988 32.721874 208.11426 32.721874Q206.52051 32.721874 205.58301 31.7375Q204.66113 30.753124 204.66113 28.9875Q204.66113 27.14375 205.59863 26.14375Q206.55176 25.128124 208.05176 25.128124Q209.50488 25.128124 210.42676 26.128124Q211.34863 27.1125 211.34863 28.909374Q211.34863 29.01875 211.34863 29.2375L205.92676 29.2375Q206.00488 30.425 206.59863 31.065624Q207.20801 31.70625 208.12988 31.70625Q208.80176 31.70625 209.27051 31.346874Q209.75488 30.9875 210.03613 30.20625ZM206.00488 28.221874L210.05176 28.221874Q209.97363 27.3 209.58301 26.846874Q209.00488 26.14375 208.06738 26.14375Q207.20801 26.14375 206.62988 26.70625Q206.06738 27.26875 206.00488 28.221874ZM213.36426 32.55L213.36426 26.253124L212.27051 26.253124L212.27051 25.284374L213.36426 25.284374L213.36426 24.51875Q213.36426 23.784374 213.48926 23.425Q213.67676 22.95625 214.11426 22.659374Q214.56738 22.3625 215.37988 22.3625Q215.89551 22.3625 216.52051 22.4875L216.33301 23.55Q215.95801 23.4875 215.61426 23.4875Q215.05176 23.4875 214.81738 23.721874Q214.58301 23.95625 214.58301 24.6125L214.58301 25.284374L216.00488 25.284374L216.00488 26.253124L214.58301 26.253124L214.58301 32.55L213.36426 32.55ZM219.75488 31.45625L219.92676 32.534374Q219.41113 32.64375 219.00488 32.64375Q218.33301 32.64375 217.95801 32.440624Q217.59863 32.221874 217.44238 31.878124Q217.30176 31.534374 217.30176 30.425L217.30176 26.253124L216.39551 26.253124L216.39551 25.284374L217.30176 25.284374L217.30176 23.4875L218.52051 22.753124L218.52051 25.284374L219.75488 25.284374L219.75488 26.253124L218.52051 26.253124L218.52051 30.4875Q218.52051 31.01875 218.58301 31.175Q218.64551 31.315624 218.78613 31.409374Q218.94238 31.503124 219.20801 31.503124Q219.42676 31.503124 219.75488 31.45625ZM224.58301 30.378124L225.78613 30.190624Q225.89551 30.925 226.36426 31.315624Q226.83301 31.70625 227.67676 31.70625Q228.52051 31.70625 228.92676 31.3625Q229.34863 31.01875 229.34863 30.55Q229.34863 30.128124 228.97363 29.89375Q228.72363 29.721874 227.72363 29.471874Q226.36426 29.128124 225.83301 28.878124Q225.31738 28.628124 225.05176 28.190624Q224.78613 27.753124 224.78613 27.221874Q224.78613 26.7375 225.00488 26.33125Q225.22363 25.909374 225.61426 25.628124Q225.89551 25.425 226.37988 25.284374Q226.87988 25.128124 227.45801 25.128124Q228.30176 25.128124 228.94238 25.378124Q229.59863 25.6125 229.91113 26.034374Q230.22363 26.45625 230.33301 27.159374L229.12988 27.33125Q229.05176 26.76875 228.64551 26.45625Q228.25488 26.14375 227.53613 26.14375Q226.69238 26.14375 226.33301 26.425Q225.97363 26.690624 225.97363 27.08125Q225.97363 27.315624 226.11426 27.503124Q226.27051 27.70625 226.59863 27.83125Q226.77051 27.89375 227.67676 28.14375Q228.98926 28.503124 229.50488 28.721874Q230.02051 28.940624 230.30176 29.3625Q230.59863 29.784374 230.59863 30.409374Q230.59863 31.034374 230.23926 31.58125Q229.89551 32.1125 229.20801 32.425Q228.53613 32.721874 227.67676 32.721874Q226.27051 32.721874 225.52051 32.128124Q224.78613 31.534374 224.58301 30.378124ZM232.08301 23.940624L232.08301 22.534374L233.30176 22.534374L233.30176 23.940624L232.08301 23.940624ZM232.08301 32.55L232.08301 25.284374L233.30176 25.284374L233.30176 32.55L232.08301 32.55ZM239.78613 32.55L239.78613 31.628124Q239.08301 32.721874 237.75488 32.721874Q236.87988 32.721874 236.14551 32.2375Q235.42676 31.753124 235.02051 30.89375Q234.62988 30.034374 234.62988 28.925Q234.62988 27.846874 234.98926 26.95625Q235.34863 26.065624 236.06738 25.596874Q236.80176 25.128124 237.69238 25.128124Q238.34863 25.128124 238.86426 25.409374Q239.37988 25.675 239.69238 26.128124L239.69238 22.534374L240.92676 22.534374L240.92676 32.55L239.78613 32.55ZM235.89551 28.925Q235.89551 30.315624 236.47363 31.01875Q237.06738 31.70625 237.86426 31.70625Q238.67676 31.70625 239.23926 31.05Q239.80176 30.378124 239.80176 29.034374Q239.80176 27.534374 239.22363 26.846874Q238.64551 26.14375 237.81738 26.14375Q236.98926 26.14375 236.44238 26.815624Q235.89551 27.4875 235.89551 28.925ZM248.03613 30.20625L249.31738 30.3625Q249.00488 31.4875 248.19238 32.1125Q247.37988 32.721874 246.11426 32.721874Q244.52051 32.721874 243.58301 31.7375Q242.66113 30.753124 242.66113 28.9875Q242.66113 27.14375 243.59863 26.14375Q244.55176 25.128124 246.05176 25.128124Q247.50488 25.128124 248.42676 26.128124Q249.34863 27.1125 249.34863 28.909374Q249.34863 29.01875 249.34863 29.2375L243.92676 29.2375Q244.00488 30.425 244.59863 31.065624Q245.20801 31.70625 246.12988 31.70625Q246.80176 31.70625 247.27051 31.346874Q247.75488 30.9875 248.03613 30.20625ZM244.00488 28.221874L248.05176 28.221874Q247.97363 27.3 247.58301 26.846874Q247.00488 26.14375 246.06738 26.14375Q245.20801 26.14375 244.62988 26.70625Q244.06738 27.26875 244.00488 28.221874Z" fill-rule="nonzero"/><path stroke="#34a853" stroke-width="4.0" stroke-linecap="butt" d="M266.1455 27.55L278.1455 27.55" fill-rule="nonzero"/><path fill="#1a1a1a" d="M287.23926 32.55L287.23926 22.534374L291.69238 22.534374Q293.03613 22.534374 293.72363 22.8Q294.42676 23.065624 294.833 23.753124Q295.25488 24.440624 295.25488 25.26875Q295.25488 26.33125 294.56738 27.065624Q293.87988 27.784374 292.44238 27.9875Q292.958 28.2375 293.23926 28.4875Q293.81738 29.01875 294.333 29.815624L296.083 32.55L294.41113 32.55L293.083 30.471874Q292.50488 29.565624 292.12988 29.096874Q291.75488 28.6125 291.458 28.425Q291.16113 28.221874 290.84863 28.14375Q290.62988 28.096874 290.11426 28.096874L288.56738 28.096874L288.56738 32.55L287.23926 32.55ZM288.56738 26.95625L291.42676 26.95625Q292.333 26.95625 292.84863 26.76875Q293.36426 26.58125 293.62988 26.175Q293.8955 25.753124 293.8955 25.26875Q293.8955 24.55 293.37988 24.096874Q292.86426 23.628124 291.73926 23.628124L288.56738 23.628124L288.56738 26.95625ZM297.083 23.940624L297.083 22.534374L298.30176 22.534374L298.30176 23.940624L297.083 23.940624ZM297.083 32.55L297.083 25.284374L298.30176 25.284374L298.30176 32.55L297.083 32.55ZM299.84863 33.159374L301.03613 33.33125Q301.11426 33.878124 301.458 34.14375Q301.91113 34.471874 302.708 34.471874Q303.56738 34.471874 304.0205 34.128124Q304.48926 33.8 304.66113 33.175Q304.75488 32.8 304.73926 31.596874Q303.94238 32.55 302.73926 32.55Q301.23926 32.55 300.41113 31.471874Q299.59863 30.39375 299.59863 28.878124Q299.59863 27.846874 299.97363 26.971874Q300.34863 26.08125 301.05176 25.6125Q301.7705 25.128124 302.73926 25.128124Q304.0205 25.128124 304.86426 26.159374L304.86426 25.284374L305.98926 25.284374L305.98926 31.565624Q305.98926 33.26875 305.6455 33.971874Q305.30176 34.675 304.55176 35.08125Q303.80176 35.503124 302.708 35.503124Q301.41113 35.503124 300.61426 34.909374Q299.81738 34.33125 299.84863 33.159374ZM300.86426 28.784374Q300.86426 30.221874 301.42676 30.878124Q301.98926 31.534374 302.84863 31.534374Q303.69238 31.534374 304.2705 30.878124Q304.84863 30.221874 304.84863 28.83125Q304.84863 27.503124 304.25488 26.83125Q303.66113 26.14375 302.833 26.14375Q302.00488 26.14375 301.42676 26.815624Q300.86426 27.471874 300.86426 28.784374ZM308.06738 32.55L308.06738 22.534374L309.30176 22.534374L309.30176 26.128124Q310.16113 25.128124 311.47363 25.128124Q312.28613 25.128124 312.87988 25.45625Q313.47363 25.76875 313.72363 26.33125Q313.98926 26.878124 313.98926 27.95625L313.98926 32.55L312.75488 32.55L312.75488 27.95625Q312.75488 27.01875 312.34863 26.6125Q311.958 26.190624 311.22363 26.190624Q310.67676 26.190624 310.19238 26.471874Q309.708 26.753124 309.50488 27.2375Q309.30176 27.721874 309.30176 28.58125L309.30176 32.55L308.06738 32.55ZM318.75488 31.45625L318.92676 32.534374Q318.41113 32.64375 318.00488 32.64375Q317.333 32.64375 316.958 32.440624Q316.59863 32.221874 316.44238 31.878124Q316.30176 31.534374 316.30176 30.425L316.30176 26.253124L315.3955 26.253124L315.3955 25.284374L316.30176 25.284374L316.30176 23.4875L317.5205 22.753124L317.5205 25.284374L318.75488 25.284374L318.75488 26.253124L317.5205 26.253124L317.5205 30.4875Q317.5205 31.01875 317.583 31.175Q317.6455 31.315624 317.78613 31.409374Q317.94238 31.503124 318.208 31.503124Q318.42676 31.503124 318.75488 31.45625ZM323.583 30.378124L324.78613 30.190624Q324.8955 30.925 325.36426 31.315624Q325.833 31.70625 326.67676 31.70625Q327.5205 31.70625 327.92676 31.3625Q328.34863 31.01875 328.34863 30.55Q328.34863 30.128124 327.97363 29.89375Q327.72363 29.721874 326.72363 29.471874Q325.36426 29.128124 324.833 28.878124Q324.31738 28.628124 324.05176 28.190624Q323.78613 27.753124 323.78613 27.221874Q323.78613 26.7375 324.00488 26.33125Q324.22363 25.909374 324.61426 25.628124Q324.8955 25.425 325.37988 25.284374Q325.87988 25.128124 326.458 25.128124Q327.30176 25.128124 327.94238 25.378124Q328.59863 25.6125 328.91113 26.034374Q329.22363 26.45625 329.333 27.159374L328.12988 27.33125Q328.05176 26.76875 327.6455 26.45625Q327.25488 26.14375 326.53613 26.14375Q325.69238 26.14375 325.333 26.425Q324.97363 26.690624 324.97363 27.08125Q324.97363 27.315624 325.11426 27.503124Q325.2705 27.70625 325.59863 27.83125Q325.7705 27.89375 326.67676 28.14375Q327.98926 28.503124 328.50488 28.721874Q329.0205 28.940624 329.30176 29.3625Q329.59863 29.784374 329.59863 30.409374Q329.59863 31.034374 329.23926 31.58125Q328.8955 32.1125 328.208 32.425Q327.53613 32.721874 326.67676 32.721874Q325.2705 32.721874 324.5205 32.128124Q323.78613 31.534374 323.583 30.378124ZM331.083 23.940624L331.083 22.534374L332.30176 22.534374L332.30176 23.940624L331.083 23.940624ZM331.083 32.55L331.083 25.284374L332.30176 25.284374L332.30176 32.55L331.083 32.55ZM338.78613 32.55L338.78613 31.628124Q338.083 32.721874 336.75488 32.721874Q335.87988 32.721874 335.1455 32.2375Q334.42676 31.753124 334.0205 30.89375Q333.62988 30.034374 333.62988 28.925Q333.62988 27.846874 333.98926 26.95625Q334.34863 26.065624 335.06738 25.596874Q335.80176 25.128124 336.69238 25.128124Q337.34863 25.128124 337.86426 25.409374Q338.37988 25.675 338.69238 26.128124L338.69238 22.534374L339.92676 22.534374L339.92676 32.55L338.78613 32.55ZM334.8955 28.925Q334.8955 30.315624 335.47363 31.01875Q336.06738 31.70625 336.86426 31.70625Q337.67676 31.70625 338.23926 31.05Q338.80176 30.378124 338.80176 29.034374Q338.80176 27.534374 338.22363 26.846874Q337.6455 26.14375 336.81738 26.14375Q335.98926 26.14375 335.44238 26.815624Q334.8955 27.4875 334.8955 28.925ZM347.03613 30.20625L348.31738 30.3625Q348.00488 31.4875 347.19238 32.1125Q346.37988 32.721874 345.11426 32.721874Q343.5205 32.721874 342.583 31.7375Q341.66113 30.753124 341.66113 28.9875Q341.66113 27.14375 342.59863 26.14375Q343.55176 25.128124 345.05176 25.128124Q346.50488 25.128124 347.42676 26.128124Q348.34863 27.1125 348.34863 28.909374Q348.34863 29.01875 348.34863 29.2375L342.92676 29.2375Q343.00488 30.425 343.59863 31.065624Q344.208 31.70625 345.12988 31.70625Q345.80176 31.70625 346.2705 31.346874Q346.75488 30.9875 347.03613 30.20625ZM343.00488 28.221874L347.05176 28.221874Q346.97363 27.3 346.583 26.846874Q346.00488 26.14375 345.06738 26.14375Q344.208 26.14375 343.62988 26.70625Q343.06738 27.26875 343.00488 28.221874Z" fill-rule="nonzero"/><path stroke="#ff6d01" stroke-width="4.0" stroke-linecap="butt" d="M365.1455 27.55L377.1455 27.55" fill-rule="nonzero"/><path fill="#1a1a1a" d="M385.7705 29.33125L387.0205 29.221874Q387.11426 29.971874 387.44238 30.45625Q387.7705 30.940624 388.44238 31.2375Q389.12988 31.534374 389.98926 31.534374Q390.73926 31.534374 391.31738 31.315624Q391.91113 31.08125 392.19238 30.690624Q392.47363 30.3 392.47363 29.83125Q392.47363 29.3625 392.19238 29.01875Q391.92676 28.659374 391.30176 28.409374Q390.8955 28.253124 389.50488 27.925Q388.12988 27.596874 387.583 27.3Q386.86426 26.925 386.50488 26.378124Q386.16113 25.815624 386.16113 25.1125Q386.16113 24.3625 386.583 23.70625Q387.0205 23.034374 387.84863 22.70625Q388.67676 22.3625 389.69238 22.3625Q390.80176 22.3625 391.6455 22.721874Q392.50488 23.08125 392.958 23.784374Q393.41113 24.471874 393.458 25.346874L392.17676 25.440624Q392.083 24.503124 391.48926 24.01875Q390.8955 23.51875 389.73926 23.51875Q388.53613 23.51875 387.98926 23.971874Q387.44238 24.409374 387.44238 25.034374Q387.44238 25.565624 387.833 25.925Q388.208 26.26875 389.81738 26.64375Q391.44238 27.003124 392.03613 27.26875Q392.91113 27.675 393.333 28.3Q393.75488 28.909374 393.75488 29.721874Q393.75488 30.51875 393.28613 31.2375Q392.833 31.940624 391.97363 32.33125Q391.11426 32.721874 390.05176 32.721874Q388.69238 32.721874 387.7705 32.33125Q386.84863 31.925 386.31738 31.128124Q385.80176 30.33125 385.7705 29.33125ZM395.083 23.940624L395.083 22.534374L396.30176 22.534374L396.30176 23.940624L395.083 23.940624ZM395.083 32.55L395.083 25.284374L396.30176 25.284374L396.30176 32.55L395.083 32.55ZM402.78613 32.55L402.78613 31.628124Q402.083 32.721874 400.75488 32.721874Q399.87988 32.721874 399.1455 32.2375Q398.42676 31.753124 398.0205 30.89375Q397.62988 30.034374 397.62988 28.925Q397.62988 27.846874 397.98926 26.95625Q398.34863 26.065624 399.06738 25.596874Q399.80176 25.128124 400.69238 25.128124Q401.34863 25.128124 401.86426 25.409374Q402.37988 25.675 402.69238 26.128124L402.69238 22.534374L403.92676 22.534374L403.92676 32.55L402.78613 32.55ZM398.8955 28.925Q398.8955 30.315624 399.47363 31.01875Q400.06738 31.70625 400.86426 31.70625Q401.67676 31.70625 402.23926 31.05Q402.80176 30.378124 402.80176 29.034374Q402.80176 27.534374 402.22363 26.846874Q401.6455 26.14375 400.81738 26.14375Q399.98926 26.14375 399.44238 26.815624Q398.8955 27.4875 398.8955 28.925ZM411.03613 30.20625L412.31738 30.3625Q412.00488 31.4875 411.19238 32.1125Q410.37988 32.721874 409.11426 32.721874Q407.5205 32.721874 406.583 31.7375Q405.66113 30.753124 405.66113 28.9875Q405.66113 27.14375 406.59863 26.14375Q407.55176 25.128124 409.05176 25.128124Q410.50488 25.128124 411.42676 26.128124Q412.34863 27.1125 412.34863 28.909374Q412.34863 29.01875 412.34863 29.2375L406.92676 29.2375Q407.00488 30.425 407.59863 31.065624Q408.208 31.70625 409.12988 31.70625Q409.80176 31.70625 410.2705 31.346874Q410.75488 30.9875 411.03613 30.20625ZM407.00488 28.221874L411.05176 28.221874Q410.97363 27.3 410.583 26.846874Q410.00488 26.14375 409.06738 26.14375Q408.208 26.14375 407.62988 26.70625Q407.06738 27.26875 407.00488 28.221874ZM420.083 32.55L417.31738 25.284374L418.62988 25.284374L420.17676 29.64375Q420.42676 30.346874 420.6455 31.096874Q420.81738 30.51875 421.09863 29.721874L422.72363 25.284374L423.98926 25.284374L421.23926 32.55L420.083 32.55ZM425.083 23.940624L425.083 22.534374L426.30176 22.534374L426.30176 23.940624L425.083 23.940624ZM425.083 32.55L425.083 25.284374L426.30176 25.284374L426.30176 32.55L425.083 32.55ZM433.03613 30.20625L434.31738 30.3625Q434.00488 31.4875 433.19238 32.1125Q432.37988 32.721874 431.11426 32.721874Q429.5205 32.721874 428.583 31.7375Q427.66113 30.753124 427.66113 28.9875Q427.66113 27.14375 428.59863 26.14375Q429.55176 25.128124 431.05176 25.128124Q432.50488 25.128124 433.42676 26.128124Q434.34863 27.1125 434.34863 28.909374Q434.34863 29.01875 434.34863 29.2375L428.92676 29.2375Q429.00488 30.425 429.59863 31.065624Q430.208 31.70625 431.12988 31.70625Q431.80176 31.70625 432.2705 31.346874Q432.75488 30.9875 433.03613 30.20625ZM429.00488 28.221874L433.05176 28.221874Q432.97363 27.3 432.583 26.846874Q432.00488 26.14375 431.06738 26.14375Q430.208 26.14375 429.62988 26.70625Q429.06738 27.26875 429.00488 28.221874ZM437.41113 32.55L435.19238 25.284374L436.458 25.284374L437.61426 29.4875L438.05176 31.034374Q438.06738 30.925 438.42676 29.534374L439.583 25.284374L440.833 25.284374L441.92676 29.503124L442.28613 30.89375L442.708 29.4875L443.958 25.284374L445.1455 25.284374L442.87988 32.55L441.59863 32.55L440.44238 28.20625L440.16113 26.971874L438.69238 32.55L437.41113 32.55Z" fill-rule="nonzero"/><path stroke="#f11502" stroke-width="4.0" stroke-linecap="butt" d="M460.1455 27.55L472.1455 27.55" fill-rule="nonzero"/><path fill="#1a1a1a" d="M480.12988 32.55L483.97363 22.534374L485.3955 22.534374L489.50488 32.55L487.98926 32.55L486.81738 29.51875L482.62988 29.51875L481.53613 32.55L480.12988 32.55ZM483.0205 28.440624L486.41113 28.440624L485.36426 25.659374Q484.8955 24.39375 484.66113 23.58125Q484.47363 24.55 484.11426 25.4875L483.0205 28.440624ZM490.03613 32.55L490.03613 22.534374L491.2705 22.534374L491.2705 32.55L490.03613 32.55ZM493.03613 32.55L493.03613 22.534374L494.2705 22.534374L494.2705 32.55L493.03613 32.55ZM502.083 32.55L499.31738 25.284374L500.62988 25.284374L502.17676 29.64375Q502.42676 30.346874 502.6455 31.096874Q502.81738 30.51875 503.09863 29.721874L504.72363 25.284374L505.98926 25.284374L503.23926 32.55L502.083 32.55ZM507.083 23.940624L507.083 22.534374L508.30176 22.534374L508.30176 23.940624L507.083 23.940624ZM507.083 32.55L507.083 25.284374L508.30176 25.284374L508.30176 32.55L507.083 32.55ZM515.03613 30.20625L516.3174 30.3625Q516.0049 31.4875 515.1924 32.1125Q514.3799 32.721874 513.11426 32.721874Q511.5205 32.721874 510.583 31.7375Q509.66113 30.753124 509.66113 28.9875Q509.66113 27.14375 510.59863 26.14375Q511.55176 25.128124 513.05176 25.128124Q514.5049 25.128124 515.42676 26.128124Q516.34863 27.1125 516.34863 28.909374Q516.34863 29.01875 516.34863 29.2375L510.92676 29.2375Q511.00488 30.425 511.59863 31.065624Q512.208 31.70625 513.1299 31.70625Q513.80176 31.70625 514.2705 31.346874Q514.7549 30.9875 515.03613 30.20625ZM511.00488 28.221874L515.05176 28.221874Q514.97363 27.3 514.583 26.846874Q514.0049 26.14375 513.0674 26.14375Q512.208 26.14375 511.62988 26.70625Q511.06738 27.26875 511.00488 28.221874ZM519.41113 32.55L517.1924 25.284374L518.458 25.284374L519.61426 29.4875L520.05176 31.034374Q520.0674 30.925 520.42676 29.534374L521.583 25.284374L522.833 25.284374L523.92676 29.503124L524.28613 30.89375L524.708 29.4875L525.958 25.284374L527.1455 25.284374L524.8799 32.55L523.59863 32.55L522.4424 28.20625L522.16113 26.971874L520.6924 32.55L519.41113 32.55ZM527.0674 35.33125L527.0674 25.284374L528.1924 25.284374L528.1924 26.2375Q528.583 25.675 529.083 25.409374Q529.583 25.128124 530.30176 25.128124Q531.22363 25.128124 531.92676 25.6125Q532.6455 26.08125 533.0049 26.95625Q533.36426 27.83125 533.36426 28.8625Q533.36426 29.971874 532.958 30.878124Q532.5674 31.76875 531.80176 32.253124Q531.05176 32.721874 530.208 32.721874Q529.59863 32.721874 529.09863 32.45625Q528.61426 32.190624 528.30176 31.8L528.30176 35.33125L527.0674 35.33125ZM528.17676 28.95625Q528.17676 30.3625 528.73926 31.034374Q529.3174 31.70625 530.1299 31.70625Q530.9424 31.70625 531.5205 31.01875Q532.11426 30.315624 532.11426 28.8625Q532.11426 27.471874 531.53613 26.784374Q530.97363 26.096874 530.17676 26.096874Q529.3955 26.096874 528.78613 26.83125Q528.17676 27.565624 528.17676 28.95625ZM534.61426 28.925Q534.61426 26.909374 535.73926 25.925Q536.66113 25.128124 538.0205 25.128124Q539.5049 25.128124 540.458 26.1125Q541.41113 27.08125 541.41113 28.815624Q541.41113 30.221874 540.98926 31.034374Q540.5674 31.83125 539.7549 32.284374Q538.958 32.721874 538.0205 32.721874Q536.48926 32.721874 535.55176 31.7375Q534.61426 30.753124 534.61426 28.925ZM535.8799 28.925Q535.8799 30.315624 536.48926 31.01875Q537.09863 31.70625 538.0205 31.70625Q538.92676 31.70625 539.53613 31.003124Q540.1455 30.3 540.1455 28.878124Q540.1455 27.534374 539.53613 26.846874Q538.92676 26.14375 538.0205 26.14375Q537.09863 26.14375 536.48926 26.83125Q535.8799 27.51875 535.8799 28.925ZM543.083 23.940624L543.083 22.534374L544.30176 22.534374L544.30176 23.940624L543.083 23.940624ZM543.083 32.55L543.083 25.284374L544.30176 25.284374L544.30176 32.55L543.083 32.55ZM546.0674 32.55L546.0674 25.284374L547.17676 25.284374L547.17676 26.315624Q547.97363 25.128124 549.48926 25.128124Q550.1455 25.128124 550.6924 25.3625Q551.23926 25.596874 551.5049 25.9875Q551.78613 26.3625 551.8955 26.89375Q551.97363 27.2375 551.97363 28.08125L551.97363 32.55L550.73926 32.55L550.73926 28.128124Q550.73926 27.378124 550.59863 27.01875Q550.458 26.64375 550.083 26.425Q549.72363 26.190624 549.22363 26.190624Q548.4424 26.190624 547.86426 26.690624Q547.30176 27.190624 547.30176 28.58125L547.30176 32.55L546.0674 32.55ZM556.7549 31.45625L556.92676 32.534374Q556.41113 32.64375 556.0049 32.64375Q555.333 32.64375 554.958 32.440624Q554.59863 32.221874 554.4424 31.878124Q554.30176 31.534374 554.30176 30.425L554.30176 26.253124L553.3955 26.253124L553.3955 25.284374L554.30176 25.284374L554.30176 23.4875L555.5205 22.753124L555.5205 25.284374L556.7549 25.284374L556.7549 26.253124L555.5205 26.253124L555.5205 30.4875Q555.5205 31.01875 555.583 31.175Q555.6455 31.315624 555.78613 31.409374Q555.9424 31.503124 556.208 31.503124Q556.42676 31.503124 556.7549 31.45625ZM557.583 30.378124L558.78613 30.190624Q558.8955 30.925 559.36426 31.315624Q559.833 31.70625 560.67676 31.70625Q561.5205 31.70625 561.92676 31.3625Q562.34863 31.01875 562.34863 30.55Q562.34863 30.128124 561.97363 29.89375Q561.72363 29.721874 560.72363 29.471874Q559.36426 29.128124 558.833 28.878124Q558.3174 28.628124 558.05176 28.190624Q557.78613 27.753124 557.78613 27.221874Q557.78613 26.7375 558.0049 26.33125Q558.22363 25.909374 558.61426 25.628124Q558.8955 25.425 559.3799 25.284374Q559.8799 25.128124 560.458 25.128124Q561.30176 25.128124 561.9424 25.378124Q562.59863 25.6125 562.91113 26.034374Q563.22363 26.45625 563.333 27.159374L562.1299 27.33125Q562.05176 26.76875 561.6455 26.45625Q561.2549 26.14375 560.53613 26.14375Q559.6924 26.14375 559.333 26.425Q558.97363 26.690624 558.97363 27.08125Q558.97363 27.315624 559.11426 27.503124Q559.2705 27.70625 559.59863 27.83125Q559.7705 27.89375 560.67676 28.14375Q561.98926 28.503124 562.5049 28.721874Q563.0205 28.940624 563.30176 29.3625Q563.59863 29.784374 563.59863 30.409374Q563.59863 31.034374 563.23926 31.58125Q562.8955 32.1125 562.208 32.425Q561.53613 32.721874 560.67676 32.721874Q559.2705 32.721874 558.5205 32.128124Q557.78613 31.534374 557.583 30.378124Z" fill-rule="nonzero"/></svg>